# This file uses centimeters as units for non-parametric coordinates.

mtllib Inside_Bend_LP.mtl
g default
v 0.936754 0.000000 -0.003046
v 0.478919 0.000000 -0.003130
v -0.000838 0.000000 -0.002054
v 0.915961 1.000000 -0.003446
v 0.467166 1.000000 -0.003529
v -0.003263 0.609761 -0.002383
v 1.330837 1.000000 -1.541926
v 1.056700 1.000000 -1.859045
v 0.805476 0.609761 -2.178361
v 1.390810 0.000000 -1.538656
v 1.112346 0.000000 -1.855211
v 0.844836 0.000000 -2.178134
v 2.918039 1.000000 -1.923092
v 2.896433 1.000000 -2.422794
v 2.930992 0.609761 -2.922494
v 3.000289 0.000000 -1.922880
v 2.997427 0.000000 -2.422626
v 3.000289 0.000000 -2.922413
v 0.958415 1.000000 -0.885116
v 0.996606 0.000000 -0.884197
v 0.606065 0.000000 -1.060195
v 0.216009 0.000000 -1.230021
v 0.197784 0.609761 -1.230313
v 0.575371 1.000000 -1.061704
v 1.150869 0.000000 -1.250832
v 1.102046 1.000000 -1.252852
v 0.772693 1.000000 -1.502301
v 0.457865 0.609761 -1.748665
v 0.485841 0.000000 -1.748405
v 0.815396 0.000000 -1.499682
v 0.901512 1.000000 -0.455843
v 0.930382 0.000000 -0.455417
v 0.494636 0.000000 -0.551165
v 0.049989 0.000000 -0.639853
v 0.040720 0.609761 -0.640170
v 0.474500 1.000000 -0.551700
v 0.899970 1.000000 -0.230803
v 0.924664 0.000000 -0.230403
v 0.476002 0.000000 -0.279053
v 0.009848 0.000000 -0.325033
v 0.004200 0.609761 -0.325358
v 0.460230 1.000000 -0.279513
v 0.953268 0.000000 -0.674978
v 0.920416 1.000000 -0.675482
v 0.512382 1.000000 -0.814147
v 0.105842 0.609761 -0.942877
v 0.119154 0.000000 -0.942571
v 0.537615 0.000000 -0.813132
v 1.019122 1.000000 -1.078245
v 1.062526 0.000000 -1.076799
v 0.699076 0.000000 -1.289737
v 0.338638 0.000000 -1.499673
v 0.315953 0.609761 -1.499949
v 0.662542 1.000000 -1.291782
v 1.260689 0.000000 -1.405001
v 1.206309 1.000000 -1.407633
v 0.904504 1.000000 -1.691713
v 0.621478 0.609761 -1.975359
v 0.655051 0.000000 -1.975116
v 0.953620 0.000000 -1.688498
v 2.021842 1.000000 -1.861038
v 2.097471 0.000000 -1.860748
v 1.928946 0.000000 -2.300574
v 1.790566 0.000000 -2.742342
v 1.729951 0.609761 -2.742505
v 1.852674 1.000000 -2.302127
v 1.639471 1.000000 -1.743781
v 1.707064 0.000000 -1.743466
v 1.486388 0.000000 -2.121318
v 1.281514 0.000000 -2.510077
v 1.230106 0.609761 -2.510273
v 1.418025 1.000000 -2.126361
v 2.540457 0.000000 -1.910823
v 2.459792 1.000000 -1.911080
v 2.353870 1.000000 -2.394323
v 2.300780 0.609761 -2.878272
v 2.367883 0.000000 -2.878146
v 2.435617 0.000000 -2.394114
v 1.474500 1.000000 -1.655068
v 1.539906 0.000000 -1.651807
v 1.290301 0.000000 -1.999438
v 1.053927 0.000000 -2.356599
v 1.008755 0.609761 -2.356810
v 1.228173 1.000000 -2.003886
v 1.894979 0.000000 -1.810934
v 1.823058 1.000000 -1.811237
v 1.625503 1.000000 -2.226637
v 1.471134 0.609761 -2.638732
v 1.527162 0.000000 -2.638553
v 1.699620 0.000000 -2.221459
v 2.235255 1.000000 -1.893047
v 2.313831 0.000000 -1.892772
v 2.175543 0.000000 -2.356703
v 2.071188 0.000000 -2.821988
v 2.006829 0.609761 -2.822134
v 2.096551 1.000000 -2.356932
v 2.770756 0.000000 -1.920157
v 2.688891 1.000000 -1.920393
v 2.621709 1.000000 -2.415882
v 2.609848 0.609761 -2.911557
v 2.678785 0.000000 -2.911452
v 2.705091 0.000000 -2.415697
vt 0.476959 0.026691
vt 0.398906 0.027090
vt 0.711117 0.025495
vt 0.633064 0.025894
vt 0.320853 0.027488
vt 0.810128 0.024990
vt 0.812520 0.493306
vt 0.401297 0.495406
vt 0.479350 0.495008
vt 0.907707 0.492820
vt 0.237155 0.049546
vt 0.235725 0.154345
vt 0.065285 0.047200
vt 0.062939 0.219070
vt 0.148874 0.220243
vt 0.151220 0.048373
vt 0.635456 0.494211
vt 0.713508 0.493812
vt 0.323244 0.495805
vt 0.905316 0.024504
vt 0.633064 0.512075
vt 0.711117 0.511677
vt 0.713508 0.979993
vt 0.635456 0.980392
vt 0.810128 0.511171
vt 0.812520 0.979488
vt 0.231165 0.908202
vt 0.146346 0.909404
vt 0.143941 0.739766
vt 0.228760 0.738564
vt 0.060588 0.844407
vt 0.059122 0.740969
vt 0.479350 0.981189
vt 0.401297 0.981588
vt 0.398906 0.513271
vt 0.476959 0.512872
vt 0.323244 0.981986
vt 0.320853 0.513669
vt 0.905316 0.510685
vt 0.907707 0.979002
vt 0.634260 0.260052
vt 0.478154 0.260849
vt 0.400102 0.261248
vt 0.322049 0.261646
vt 0.906511 0.258662
vt 0.811324 0.259148
vt 0.712313 0.259654
vt 0.478752 0.377929
vt 0.634858 0.377131
vt 0.712910 0.376733
vt 0.811922 0.376227
vt 0.322647 0.378726
vt 0.907109 0.375741
vt 0.400699 0.378327
vt 0.633662 0.142973
vt 0.477556 0.143770
vt 0.399504 0.144169
vt 0.321451 0.144567
vt 0.905913 0.141583
vt 0.810726 0.142069
vt 0.711715 0.142575
vt 0.633363 0.084434
vt 0.477258 0.085231
vt 0.399205 0.085629
vt 0.321152 0.086028
vt 0.905614 0.083043
vt 0.810427 0.083529
vt 0.711416 0.084035
vt 0.477855 0.202310
vt 0.633961 0.201513
vt 0.712014 0.201114
vt 0.811025 0.200609
vt 0.321750 0.203107
vt 0.906212 0.200122
vt 0.399803 0.202708
vt 0.634559 0.318592
vt 0.478453 0.319389
vt 0.400400 0.319788
vt 0.322348 0.320186
vt 0.906810 0.317202
vt 0.811623 0.317688
vt 0.712612 0.318193
vt 0.479051 0.436468
vt 0.635157 0.435671
vt 0.713209 0.435273
vt 0.812221 0.434767
vt 0.322945 0.437265
vt 0.907408 0.434281
vt 0.400998 0.436867
vt 0.634260 0.746234
vt 0.478154 0.747031
vt 0.400102 0.747429
vt 0.322049 0.747828
vt 0.906511 0.744843
vt 0.811324 0.745329
vt 0.712313 0.745835
vt 0.633662 0.629154
vt 0.477556 0.629951
vt 0.399504 0.630350
vt 0.321451 0.630749
vt 0.905913 0.627764
vt 0.810726 0.628250
vt 0.711715 0.628756
vt 0.478752 0.864110
vt 0.634858 0.863313
vt 0.712910 0.862914
vt 0.811922 0.862409
vt 0.322647 0.864907
vt 0.907109 0.861923
vt 0.400699 0.864508
vt 0.633363 0.570615
vt 0.477258 0.571412
vt 0.399205 0.571811
vt 0.321152 0.572209
vt 0.905614 0.569225
vt 0.810427 0.569711
vt 0.711416 0.570216
vt 0.477855 0.688491
vt 0.633961 0.687694
vt 0.712014 0.687295
vt 0.811025 0.686790
vt 0.321750 0.689288
vt 0.906212 0.686304
vt 0.399803 0.688890
vt 0.634559 0.804773
vt 0.478453 0.805570
vt 0.400400 0.805969
vt 0.322348 0.806367
vt 0.906810 0.803383
vt 0.811623 0.803869
vt 0.712612 0.804375
vt 0.479051 0.922649
vt 0.635157 0.921852
vt 0.713209 0.921454
vt 0.812221 0.920948
vt 0.322945 0.923447
vt 0.907408 0.920462
vt 0.400998 0.923048
vn -0.000184 0.000396 1.000000
vn -0.000184 0.000396 1.000000
vn 0.000575 0.000420 1.000000
vn 0.000875 0.000430 1.000000
vn 0.002145 0.000471 0.999998
vn 0.002145 0.000471 0.999998
vn 0.000000 1.000000 0.000000
vn 0.000000 1.000000 0.000000
vn -0.433192 0.901122 -0.017981
vn -0.418897 0.908034 -0.000369
vn -0.649153 0.760124 -0.028515
vn -0.644266 0.764802 -0.000567
vn 0.000000 -1.000000 0.000000
vn 0.000000 -1.000000 0.000000
vn 0.000000 -1.000000 0.000000
vn 0.000000 -1.000000 0.000000
vn 0.000000 -1.000000 0.000000
vn 0.000000 -1.000000 0.000000
vn -0.999584 -0.006632 -0.028084
vn -0.999584 -0.006632 -0.028084
vn -0.997205 -0.009403 -0.074115
vn -0.997205 -0.009403 -0.074125
vn 0.999430 0.024731 -0.022970
vn 0.997842 0.022670 -0.061623
vn 0.997842 0.022670 -0.061623
vn 0.999429 0.024728 -0.023018
vn 0.000001 1.000000 0.000000
vn 0.000000 1.000000 0.000000
vn -0.282007 0.885946 -0.368200
vn -0.298695 0.889324 -0.346243
vn -0.413738 0.728385 -0.546146
vn -0.451371 0.722844 -0.523221
vn 0.995534 0.091208 -0.024372
vn 0.995534 0.091208 -0.024372
vn 0.995123 0.097458 -0.015213
vn 0.995254 0.095663 -0.017845
vn 0.994444 0.105198 -0.003841
vn 0.994444 0.105198 -0.003841
vn 0.000000 -1.000000 0.000000
vn 0.000000 -1.000000 0.000000
vn 0.000000 -1.000000 0.000000
vn 0.000000 -1.000000 0.000000
vn 0.000000 -1.000000 0.000000
vn 0.000000 -1.000000 0.000000
vn -0.653755 -0.045587 -0.755331
vn -0.653755 -0.045587 -0.755331
vn -0.611503 -0.045343 -0.789942
vn -0.608163 -0.045319 -0.792517
vn 0.547329 0.037296 0.836086
vn 0.611056 0.040888 0.790531
vn 0.611056 0.040888 0.790531
vn 0.542809 0.037040 0.839039
vn 0.724182 0.043437 0.688239
vn 0.724182 0.043437 0.688239
vn 0.776350 0.043700 0.628786
vn 0.774361 0.043695 0.631233
vn 0.000000 -1.000000 0.000000
vn 0.000000 -1.000000 0.000000
vn 0.000000 -1.000000 0.000000
vn 0.000000 -1.000000 0.000000
vn 0.000000 -1.000000 0.000000
vn 0.000000 -1.000000 0.000000
vn -0.772507 -0.042570 -0.633578
vn -0.734991 -0.044218 -0.676634
vn -0.734991 -0.044218 -0.676634
vn -0.770955 -0.042643 -0.635461
vn -0.374621 0.877636 -0.299024
vn -0.363602 0.871114 -0.330083
vn -0.516763 0.716156 -0.469124
vn -0.543465 0.715410 -0.439130
vn -0.000000 1.000000 0.000000
vn -0.000000 1.000000 0.000001
vn 0.926137 0.040660 0.374990
vn 0.967599 0.037054 0.249758
vn 0.967424 0.037077 0.250431
vn 0.925636 0.040689 0.376222
vn 0.000000 1.000000 0.000000
vn 0.000000 1.000000 0.000000
vn -0.429759 0.879730 -0.203428
vn -0.441040 0.884489 -0.152190
vn -0.626919 0.718777 -0.300552
vn -0.648461 0.726653 -0.226878
vn -0.932806 -0.027741 -0.359310
vn -0.890179 -0.033446 -0.454382
vn -0.889667 -0.033502 -0.455378
vn -0.932563 -0.027781 -0.359938
vn 0.000000 -1.000000 0.000000
vn 0.000000 -1.000000 0.000000
vn 0.000000 -1.000000 0.000000
vn 0.000000 -1.000000 0.000000
vn 0.000000 -1.000000 0.000000
vn 0.000000 -1.000000 0.000000
vn 0.989343 0.032866 0.141846
vn 0.989306 0.032878 0.142101
vn 0.000000 -1.000000 0.000000
vn 0.000000 -1.000000 0.000000
vn 0.000000 -1.000000 0.000000
vn -0.964340 -0.021425 -0.263799
vn -0.964251 -0.021447 -0.264120
vn -0.443565 0.890327 -0.102796
vn -0.657570 0.737287 -0.154949
vn 0.000000 1.000000 0.000000
vn 0.998070 0.028765 0.055030
vn 0.998067 0.028768 0.055088
vn 0.000000 -1.000000 0.000000
vn 0.000000 -1.000000 0.000000
vn 0.000000 -1.000000 0.000000
vn -0.985622 -0.015175 -0.168284
vn -0.985600 -0.015183 -0.168409
vn -0.439891 0.896195 -0.057704
vn -0.656480 0.749169 -0.088205
vn 0.000000 1.000000 0.000000
vn 0.862514 0.043002 0.504202
vn 0.861412 0.043025 0.506082
vn 0.000000 -1.000000 0.000000
vn 0.000000 -1.000000 0.000000
vn 0.000000 -1.000000 0.000000
vn -0.836712 -0.038495 -0.546288
vn -0.835790 -0.038571 -0.547692
vn -0.407687 0.877294 -0.253272
vn -0.592010 0.714772 -0.372324
vn 0.000000 1.000000 0.000000
vn 0.011820 0.001194 0.999929
vn 0.011820 0.001194 0.999929
vn 0.026955 0.002431 0.999634
vn 0.025461 0.002309 0.999673
vn 0.000000 -1.000000 0.000000
vn 0.000000 -1.000000 0.000000
vn 0.000000 -1.000000 0.000000
vn 0.000000 -1.000000 0.000000
vn 0.000000 -1.000000 0.000000
vn 0.000000 -1.000000 0.000000
vn -0.072512 -0.008290 -0.997333
vn -0.034057 -0.004013 -0.999412
vn -0.034057 -0.004013 -0.999412
vn -0.067315 -0.007712 -0.997702
vn -0.024703 0.918094 -0.395592
vn -0.011867 0.918112 -0.396142
vn -0.018489 0.786594 -0.617194
vn -0.037858 0.784873 -0.618499
vn 0.000000 1.000000 0.000000
vn 0.000000 1.000000 0.000000
vn 0.195392 0.014939 0.980611
vn 0.292549 0.021171 0.956016
vn 0.288167 0.020907 0.957352
vn 0.190988 0.014637 0.981483
vn 0.000000 -1.000000 0.000000
vn 0.000000 -1.000000 0.000000
vn 0.000000 -1.000000 0.000000
vn 0.000000 -1.000000 0.000000
vn 0.000000 -1.000000 0.000000
vn 0.000000 -1.000000 0.000000
vn -0.420469 -0.038646 -0.906484
vn -0.324348 -0.032174 -0.945391
vn -0.318710 -0.031746 -0.947321
vn -0.415320 -0.038339 -0.908867
vn -0.175335 0.899238 -0.400785
vn -0.125583 0.906516 -0.403061
vn -0.192173 0.760746 -0.619948
vn -0.263723 0.749078 -0.607727
vn 0.000000 1.000000 0.000000
vn 0.000000 1.000000 0.000000
vn 0.114594 0.009206 0.993370
vn 0.111242 0.008956 0.993753
vn 0.000000 1.000000 0.000000
vn -0.085079 0.912379 -0.400408
vn -0.131767 0.771448 -0.622499
vn -0.232974 -0.024581 -0.972172
vn -0.227256 -0.024058 -0.973538
vn 0.000000 -1.000000 0.000000
vn 0.000000 -1.000000 0.000000
vn 0.000000 -1.000000 0.000000
vn 0.411409 0.028850 0.910994
vn 0.406103 0.028491 0.913383
vn 0.000000 -1.000000 0.000000
vn 0.000000 -1.000000 0.000000
vn 0.000000 -1.000000 0.000000
vn -0.517922 -0.043288 -0.854332
vn -0.513469 -0.043125 -0.857024
vn -0.228639 0.892799 -0.388117
vn -0.339982 0.738137 -0.582723
vn 0.000000 1.000000 0.000000
vn 0.061000 0.005145 0.998125
vn 0.058997 0.004988 0.998246
vn 0.000000 -1.000000 0.000000
vn 0.000000 -1.000000 0.000000
vn 0.000000 -1.000000 0.000000
vn -0.148921 -0.016449 -0.988712
vn -0.143405 -0.015880 -0.989537
vn -0.052257 0.916251 -0.397182
vn -0.081214 0.779609 -0.620979
vn 0.000000 1.000000 0.000000
s 1
g Inside_Bend_LP
usemtl initialShadingGroup
f 1/13/1 4/14/2 5/15/3 2/16/4
f 2/16/4 5/15/3 6/12/5 3/11/6
s 2
f 4/4/7 37/62/8 42/68/9 5/3/10
f 5/3/10 42/68/9 41/67/11 6/6/12
s 3
f 38/63/13 1/1/14 2/2/15 39/64/16
f 39/64/16 2/2/15 3/5/17 40/65/18
s 4
f 3/20/19 6/6/20 41/67/21 40/66/22
s 5
f 37/62/23 4/4/24 1/1/25 38/63/26
s 6
f 7/21/27 79/111/28 84/117/29 8/22/30
f 8/22/30 84/117/29 83/116/31 9/25/32
s 7
f 13/27/33 16/30/34 17/29/35 14/28/36
f 14/28/36 17/29/35 18/32/37 15/31/38
s 8
f 80/112/39 10/36/40 11/35/41 81/113/42
f 81/113/42 11/35/41 12/38/43 82/114/44
s 9
f 12/39/45 9/25/46 83/116/47 82/115/48
s 10
f 79/111/49 7/21/50 10/36/51 80/112/52
s 5
f 10/9/53 7/17/54 56/84/55 55/83/56
s 3
f 10/9/57 55/83/58 60/89/59 11/8/60
f 11/8/60 60/89/59 59/87/61 12/19/62
s 4
f 58/86/63 9/7/64 12/10/65 59/88/66
s 2
f 57/85/67 8/18/68 9/7/69 58/86/70
f 56/84/71 7/17/72 8/18/68 57/85/67
s 5
f 49/76/73 19/41/74 20/42/75 50/77/76
s 2
f 19/41/77 49/76/78 54/82/79 24/47/80
f 24/47/80 54/82/79 53/81/81 23/46/82
s 4
f 23/46/83 53/81/84 52/80/85 22/45/86
s 3
f 51/78/87 21/43/88 22/44/89 52/79/90
f 50/77/91 20/42/92 21/43/88 51/78/87
s 5
f 19/41/74 44/70/93 43/69/94 20/42/75
s 3
f 20/42/92 43/69/95 48/75/96 21/43/88
f 21/43/88 48/75/96 47/73/97 22/44/89
s 4
f 46/72/98 23/46/83 22/45/86 47/74/99
s 2
f 45/71/100 24/47/80 23/46/82 46/72/101
f 44/70/102 19/41/77 24/47/80 45/71/100
s 5
f 31/55/103 37/62/23 38/63/26 32/56/104
s 3
f 32/56/105 38/63/13 39/64/16 33/57/106
f 33/57/106 39/64/16 40/65/18 34/58/107
s 4
f 41/67/21 35/60/108 34/59/109 40/66/22
s 2
f 42/68/9 36/61/110 35/60/111 41/67/11
f 37/62/8 31/55/112 36/61/110 42/68/9
s 5
f 44/70/93 31/55/103 32/56/104 43/69/94
s 2
f 31/55/112 44/70/102 45/71/100 36/61/110
f 36/61/110 45/71/100 46/72/101 35/60/111
s 4
f 35/60/108 46/72/98 47/74/99 34/59/109
s 3
f 48/75/96 33/57/106 34/58/107 47/73/97
f 43/69/95 32/56/105 33/57/106 48/75/96
s 5
f 26/49/113 49/76/73 50/77/76 25/48/114
s 3
f 25/48/115 50/77/91 51/78/87 30/54/116
f 30/54/116 51/78/87 52/79/90 29/52/117
s 4
f 53/81/84 28/51/118 29/53/119 52/80/85
s 2
f 54/82/79 27/50/120 28/51/121 53/81/81
f 49/76/78 26/49/122 27/50/120 54/82/79
s 5
f 56/84/55 26/49/113 25/48/114 55/83/56
s 2
f 26/49/122 56/84/71 57/85/67 27/50/120
f 27/50/120 57/85/67 58/86/70 28/51/121
s 4
f 28/51/118 58/86/63 59/88/66 29/53/119
s 3
f 60/89/59 30/54/116 29/52/117 59/87/61
f 55/83/58 25/48/115 30/54/116 60/89/59
s 10
f 16/33/123 13/24/124 98/133/125 97/132/126
s 8
f 16/33/127 97/132/128 102/138/129 17/34/130
f 17/34/130 102/138/129 101/136/131 18/37/132
s 9
f 100/135/133 15/26/134 18/40/135 101/137/136
s 6
f 99/134/137 14/23/138 15/26/139 100/135/140
f 98/133/141 13/24/142 14/23/138 99/134/137
s 10
f 61/90/143 86/119/144 85/118/145 62/91/146
s 8
f 62/91/147 85/118/148 90/124/149 63/92/150
f 63/92/150 90/124/149 89/122/151 64/93/152
s 9
f 88/121/153 65/95/154 64/94/155 89/123/156
s 6
f 87/120/157 66/96/158 65/95/159 88/121/160
f 86/119/161 61/90/162 66/96/158 87/120/157
s 10
f 91/125/163 61/90/143 62/91/146 92/126/164
s 6
f 61/90/162 91/125/165 96/131/166 66/96/158
f 66/96/158 96/131/166 95/130/167 65/95/159
s 9
f 65/95/154 95/130/168 94/129/169 64/94/155
s 8
f 93/127/170 63/92/150 64/93/152 94/128/171
f 92/126/172 62/91/147 63/92/150 93/127/170
s 10
f 67/97/173 79/111/49 80/112/52 68/98/174
s 8
f 68/98/175 80/112/39 81/113/42 69/99/176
f 69/99/176 81/113/42 82/114/44 70/100/177
s 9
f 83/116/47 71/102/178 70/101/179 82/115/48
s 6
f 84/117/29 72/103/180 71/102/181 83/116/31
f 79/111/28 67/97/182 72/103/180 84/117/29
s 10
f 86/119/144 67/97/173 68/98/174 85/118/145
s 6
f 67/97/182 86/119/161 87/120/157 72/103/180
f 72/103/180 87/120/157 88/121/160 71/102/181
s 9
f 71/102/178 88/121/153 89/123/156 70/101/179
s 8
f 90/124/149 69/99/176 70/100/177 89/122/151
f 85/118/148 68/98/175 69/99/176 90/124/149
s 10
f 74/105/183 91/125/163 92/126/164 73/104/184
s 8
f 73/104/185 92/126/172 93/127/170 78/110/186
f 78/110/186 93/127/170 94/128/171 77/108/187
s 9
f 95/130/168 76/107/188 77/109/189 94/129/169
s 6
f 96/131/166 75/106/190 76/107/191 95/130/167
f 91/125/165 74/105/192 75/106/190 96/131/166
s 10
f 98/133/125 74/105/183 73/104/184 97/132/126
s 6
f 74/105/192 98/133/141 99/134/137 75/106/190
f 75/106/190 99/134/137 100/135/140 76/107/191
s 9
f 76/107/188 100/135/133 101/137/136 77/109/189
s 8
f 102/138/129 78/110/186 77/108/187 101/136/131
f 97/132/128 73/104/185 78/110/186 102/138/129
