# This file uses centimeters as units for non-parametric coordinates.

mtllib Outside_Corner_HP.mtl
g default
v -0.501239 0.000000 -3.499588
v 2.995915 0.969497 -3.984758
v 2.984757 0.969497 -3.995916
v 2.969514 0.969515 -4.000000
v 2.969520 0.984757 -3.995916
v 2.969520 0.995916 -3.984758
v 2.969514 1.000000 -3.969515
v 2.984757 0.995916 -3.969515
v 2.995915 0.984757 -3.969515
v 3.000000 0.969515 -3.969515
v 2.996426 0.983597 -3.518743
v 2.985023 0.994302 -3.523597
v 2.969057 1.000000 -3.523139
v 2.968896 0.998343 -3.508368
v 2.968741 0.993444 -3.494257
v 2.968598 0.985553 -3.481489
v 2.984767 0.980857 -3.484692
v 2.996335 0.975485 -3.495200
v 3.000000 0.970978 -3.509985
v 2.984796 0.585139 -3.004854
v 2.996134 0.588820 -3.015597
v 3.000000 0.595486 -3.029248
v 2.996130 0.610350 -3.026089
v 2.984793 0.621084 -3.022381
v 2.969123 0.624708 -3.019151
v 2.969124 0.613794 -3.008846
v 2.969124 0.600305 -3.002263
v 2.969123 0.585467 -3.000000
v 2.969514 0.004084 -3.984751
v 2.969514 0.015242 -3.995909
v 2.969514 0.030485 -3.999994
v 2.984757 0.030486 -3.995912
v 2.995915 0.030487 -3.984755
v 3.000000 0.030488 -3.969512
v 2.995915 0.015244 -3.969512
v 2.984757 0.004085 -3.969511
v 2.969514 0.000000 -3.969509
v 3.000000 0.030485 -3.500000
v 2.995915 0.015242 -3.500000
v 2.984757 0.004084 -3.499998
v 2.969514 0.000000 -3.499996
v 2.969518 0.015242 -3.004084
v 2.969518 0.004084 -3.015242
v 2.969514 0.000000 -3.030485
v 2.984757 0.004084 -3.030497
v 2.995915 0.015243 -3.030497
v 3.000000 0.030485 -3.030485
v 2.995915 0.030485 -3.015243
v 2.984757 0.030485 -3.004084
v 2.969514 0.030485 -3.000000
v -0.969515 1.000000 -3.969515
v -0.984756 0.995915 -3.984753
v -0.995915 0.984756 -3.995903
v -1.000000 0.969515 -3.999975
v -0.482029 0.985974 -3.482029
v -0.494512 0.993713 -3.494512
v -0.508236 0.998405 -3.508236
v -0.522796 1.000000 -3.522796
v 0.000000 0.585774 -3.000000
v -0.002267 0.600349 -3.002267
v -0.008895 0.613785 -3.008895
v -0.018909 0.624519 -3.018909
v -1.000000 0.030485 -3.999200
v -0.995916 0.015241 -3.995105
v -0.984759 0.004084 -3.983941
v -0.969515 0.000000 -3.968697
v -0.030485 0.000000 -3.030485
v -0.015243 0.004084 -3.015243
v -0.004084 0.015242 -3.004084
v 0.000000 0.030485 -3.000000
v -0.995916 0.015242 -0.030485
v -0.984757 0.004084 -0.030485
v -0.969515 0.000000 -0.030485
v -0.969515 0.004084 -0.015242
v -0.969515 0.015242 -0.004084
v -0.969515 0.030485 0.000000
v -0.984757 0.030485 -0.004084
v -0.995916 0.030485 -0.015242
v -1.000000 0.030485 -0.030485
v -0.500000 0.030485 0.000000
v -0.500001 0.015242 -0.004084
v -0.500005 0.004084 -0.015242
v -0.500011 0.000000 -0.030485
v -0.015243 0.004084 -0.030477
v -0.004084 0.015243 -0.030477
v 0.000000 0.030485 -0.030485
v -0.004084 0.030485 -0.015242
v -0.015243 0.030485 -0.004084
v -0.030485 0.030485 0.000000
v -0.030498 0.015243 -0.004084
v -0.030498 0.004084 -0.015242
v -0.030485 0.000000 -0.030485
v -0.984757 0.995916 -0.030474
v -0.995916 0.984758 -0.030474
v -1.000000 0.969515 -0.030485
v -0.995916 0.969497 -0.015242
v -0.984757 0.969497 -0.004084
v -0.969515 0.969515 0.000000
v -0.969515 0.984758 -0.004084
v -0.969515 0.995916 -0.015242
v -0.969515 1.000000 -0.030485
v -0.494299 0.993446 -0.031413
v -0.508527 0.998341 -0.031413
v -0.523481 1.000000 -0.031401
v -0.523857 0.994314 -0.015227
v -0.518878 0.983612 -0.003659
v -0.509985 0.970978 0.000000
v -0.495200 0.975485 -0.003665
v -0.484692 0.980857 -0.015232
v -0.481489 0.985553 -0.031401
v -0.002292 0.600185 -0.031273
v -0.008958 0.613845 -0.031273
v -0.019394 0.624897 -0.031267
v -0.022552 0.621233 -0.015416
v -0.026170 0.610432 -0.003937
v -0.029248 0.595486 0.000000
v -0.015583 0.588706 -0.003934
v -0.004841 0.584912 -0.015413
v 0.000000 0.585159 -0.031267
v 2.993618 0.982688 -3.982688
v 2.982683 0.982701 -3.993622
v 2.982687 0.993636 -3.982684
v 2.994258 0.984846 -3.505136
v 2.982818 0.994243 -3.510315
v 2.982729 0.989014 -3.495221
v 2.982693 0.598329 -3.005559
v 2.993915 0.602262 -3.015364
v 2.982697 0.612439 -3.012448
v 2.982687 0.006377 -3.982683
v 2.982687 0.017313 -3.993619
v 2.993622 0.017314 -3.982684
v 2.982687 0.017314 -3.006372
v 2.982687 0.006377 -3.017310
v 2.993621 0.017312 -3.017315
v -0.993623 0.017313 -0.017313
v -0.982687 0.006377 -0.017313
v -0.982687 0.017313 -0.006377
v -0.017310 0.006377 -0.017311
v -0.006372 0.017314 -0.017310
v -0.017315 0.017313 -0.006377
v -0.982684 0.993636 -0.017310
v -0.993622 0.982701 -0.017313
v -0.982688 0.982688 -0.006380
v -0.495261 0.989021 -0.017366
v -0.510456 0.994249 -0.017369
v -0.505210 0.984856 -0.005805
v -0.005574 0.598231 -0.017546
v -0.012533 0.612488 -0.017542
v -0.015398 0.602246 -0.006189
vt 0.602918 0.871256
vt 0.601255 0.545540
vt 0.609587 0.871099
vt 0.658423 0.870810
vt 0.656799 0.570886
vt 0.663520 0.870013
vt 0.727686 0.869743
vt 0.726060 0.545919
vt 0.491847 0.546104
vt 0.064367 0.259886
vt 0.793720 0.869448
vt 0.792061 0.544566
vt 0.509369 0.155182
vt 0.624651 0.154217
vt 0.070453 0.052511
vt 0.825712 0.154069
vt 0.761768 0.154485
vt 0.683102 0.154105
vt 0.068250 0.213902
vt 0.756095 0.154514
vt 0.230731 0.151823
vt 0.607925 0.547144
vt 0.661787 0.571120
vt 0.225920 0.416922
vt 0.147970 0.418275
vt 0.065516 0.355734
vt 0.144014 0.258757
vt 0.493510 0.871458
vt 0.442143 0.871721
vt 0.440481 0.546361
vt 0.390773 0.871506
vt 0.389117 0.546633
vt 0.733001 0.869715
vt 0.731309 0.544876
vt 0.500183 0.871781
vt 0.498520 0.546065
vt 0.151149 0.053612
vt 0.231844 0.054714
vt 0.147226 0.215231
vt 0.631682 0.154285
vt 0.684932 0.467337
vt 0.688519 0.154875
vt 0.757914 0.495578
vt 0.511112 0.498019
vt 0.456993 0.498295
vt 0.455243 0.155459
vt 0.827460 0.496404
vt 0.516397 0.154769
vt 0.626404 0.497430
vt 0.223661 0.257628
vt 0.633432 0.495491
vt 0.690188 0.467009
vt 0.763444 0.496730
vt 0.518149 0.497983
vt 0.402859 0.498572
vt 0.401118 0.156237
vt 0.185073 0.397766
vt 0.604298 0.873751
vt 0.145723 0.379288
vt 0.605147 0.871212
vt 0.607372 0.871156
vt 0.609304 0.872424
vt 0.145775 0.382974
vt 0.609053 0.873726
vt 0.659423 0.873469
vt 0.146329 0.422024
vt 0.658637 0.872192
vt 0.660080 0.870676
vt 0.661778 0.870406
vt 0.663271 0.871783
vt 0.145358 0.421315
vt 0.662511 0.873454
vt 0.099782 0.333305
vt 0.733626 0.873090
vt 0.082368 0.344500
vt 0.728892 0.873115
vt 0.102816 0.339165
vt 0.720556 0.865703
vt 0.727627 0.868330
vt 0.730326 0.869036
vt 0.495737 0.871578
vt 0.497958 0.871686
vt 0.144570 0.297942
vt 0.499373 0.874286
vt 0.186330 0.282173
vt 0.188333 0.284433
vt 0.494621 0.874311
vt 0.144517 0.294258
vt 0.143958 0.256187
vt 0.442157 0.874579
vt 0.143941 0.253585
vt 0.387447 0.873372
vt 0.797064 0.871280
vt 0.389110 0.872437
vt 0.064058 0.254718
vt 0.390638 0.874842
vt 0.064227 0.257275
vt 0.062303 0.258258
vt 0.795562 0.872774
vt 0.060090 0.256657
vt 0.630754 0.496230
vt 0.605383 0.546533
vt 0.628394 0.496881
vt 0.603144 0.545994
vt 0.688496 0.467114
vt 0.669522 0.536243
vt 0.686744 0.467224
vt 0.677535 0.500113
vt 0.761763 0.496380
vt 0.729713 0.545193
vt 0.759916 0.495995
vt 0.727961 0.545541
vt 0.516156 0.497993
vt 0.496630 0.546076
vt 0.513794 0.498005
vt 0.494390 0.546089
vt 0.400994 0.498581
vt 0.387342 0.546637
vt 0.830974 0.496386
vt 0.399352 0.498590
vt 0.385779 0.546641
vt 0.795396 0.544549
vt 0.514055 0.154896
vt 0.511713 0.155034
vt 0.163913 0.048546
vt 0.510464 0.152164
vt 0.122947 0.051955
vt 0.120708 0.051294
vt 0.515467 0.152138
vt 0.165062 0.048562
vt 0.151214 0.050994
vt 0.455227 0.152446
vt 0.151220 0.048373
vt 0.399353 0.155268
vt 0.829216 0.152102
vt 0.397594 0.154306
vt 0.236789 0.049541
vt 0.827617 0.150544
vt 0.234304 0.051844
vt 0.231988 0.052056
vt 0.400940 0.152723
vt 0.232154 0.049477
vt 0.629345 0.154249
vt 0.626993 0.154226
vt 0.190447 0.048908
vt 0.625941 0.151574
vt 0.133070 0.131397
vt 0.137323 0.131400
vt 0.630947 0.151549
vt 0.191598 0.048924
vt 0.686711 0.154605
vt 0.684902 0.154348
vt 0.203646 0.049088
vt 0.683378 0.151281
vt 0.178644 0.140285
vt 0.177815 0.139922
vt 0.688457 0.151255
vt 0.204813 0.049104
vt 0.759890 0.154479
vt 0.757995 0.154490
vt 0.220643 0.049320
vt 0.757349 0.150903
vt 0.231352 0.103837
vt 0.231559 0.103421
vt 0.762389 0.150877
vt 0.221801 0.049336
vt 0.607542 0.873734
vt 0.145759 0.381802
vt 0.605814 0.873743
vt 0.145740 0.380462
vt 0.607430 0.872685
vt 0.660969 0.873461
vt 0.146346 0.423223
vt 0.660063 0.871944
vt 0.661831 0.871767
vt 0.732133 0.873098
vt 0.100739 0.335154
vt 0.730412 0.873107
vt 0.101842 0.337283
vt 0.459740 0.664424
vt 0.144534 0.295430
vt 0.496133 0.874303
vt 0.144553 0.296770
vt 0.497861 0.874294
vt 0.307894 0.517912
vt 0.059122 0.254788
vt 0.797072 0.872766
vt 0.387454 0.874858
vt 0.061754 0.254750
vt 0.389152 0.874849
vt 0.062204 0.256667
vt 0.164697 0.048557
vt 0.513876 0.152146
vt 0.164279 0.048551
vt 0.512056 0.152156
vt 0.278653 0.091284
vt 0.234489 0.049509
vt 0.399374 0.152731
vt 0.237155 0.049546
vt 0.397586 0.152740
vt 0.829208 0.150536
vt 0.234143 0.051091
vt 0.191232 0.048919
vt 0.629356 0.151557
vt 0.190814 0.048913
vt 0.627536 0.151566
vt 0.333027 0.135520
vt 0.204447 0.049099
vt 0.686865 0.151263
vt 0.204013 0.049093
vt 0.684975 0.151273
vt 0.378299 0.149546
vt 0.221436 0.049331
vt 0.760800 0.150886
vt 0.221007 0.049325
vt 0.758933 0.150895
vt 0.442038 0.124433
vn 0.000919 0.003861 -0.999992
vn 0.258460 0.003013 -0.966017
vn 0.258456 -0.003028 -0.966018
vn 0.000916 -0.004687 -0.999989
vn 0.707098 0.003185 -0.707108
vn 0.866089 0.003212 -0.499880
vn 0.866039 -0.003215 -0.499967
vn 0.707098 -0.003188 -0.707109
vn 0.999957 0.003895 -0.008474
vn 0.999955 -0.004287 -0.008472
vn 0.001292 0.999955 -0.009364
vn 0.000725 0.965932 -0.258796
vn -0.492427 0.868408 -0.058169
vn -0.013057 0.999830 -0.013058
vn 0.000760 0.706953 -0.707260
vn 0.000759 0.706953 -0.707260
vn -0.000002 0.706953 -0.707261
vn -0.000002 0.706953 -0.707261
vn 0.000720 0.258409 -0.966035
vn -0.000102 0.003182 -0.999995
vn -0.000005 0.258481 -0.966016
vn 0.964497 0.263991 -0.007339
vn 0.888243 0.459367 0.002528
vn 0.999993 0.003504 0.001372
vn 0.696053 0.717973 -0.005013
vn 0.506985 0.861942 -0.004791
vn 0.523017 0.852315 0.003601
vn 0.001289 0.999994 0.003294
vn 0.001593 0.790085 0.612995
vn 0.001368 0.903624 0.428324
vn 0.198133 0.959931 0.198181
vn 0.000002 0.792569 0.609783
vn 0.001361 0.975894 0.218239
vn 0.083378 0.993023 0.083393
vn 0.000566 1.000000 0.000566
vn 0.880019 0.375630 0.290636
vn 0.871770 0.384707 0.303345
vn 0.999983 0.002548 0.005185
vn 0.519686 0.674841 0.523943
vn 0.515802 0.674507 0.528193
vn 0.001598 0.786151 0.618032
vn 0.883557 0.002824 0.468315
vn 0.964361 -0.005664 0.264529
vn 0.999968 -0.005276 0.006105
vn 0.513091 0.003093 0.858329
vn 0.500140 -0.004655 0.865932
vn 0.697749 -0.004799 0.716326
vn 0.001472 0.003973 0.999991
vn 0.001485 -0.007156 0.999973
vn 0.001301 0.300444 0.953799
vn 0.000000 0.324702 0.945816
vn 0.000000 0.004352 0.999991
vn 0.001294 0.568282 0.822833
vn -0.000001 0.605353 0.795957
vn 0.000000 0.787365 0.616487
vn 0.000594 -0.499998 -0.866026
vn -0.000183 -0.426090 -0.904681
vn -0.000104 -0.004013 -0.999992
vn 0.000669 -0.865859 -0.500287
vn -0.058244 -0.868475 -0.492300
vn 0.001086 -0.999959 -0.008950
vn -0.012517 -0.999843 -0.012516
vn 0.001172 -0.999999 -0.000000
vn 0.258826 -0.965924 -0.000000
vn 0.258220 -0.966068 0.005963
vn 0.001249 -0.999969 0.007808
vn 0.707124 -0.707089 -0.000001
vn 0.866031 -0.499990 -0.000001
vn 0.866093 -0.499843 0.006341
vn 0.707105 -0.707080 0.006284
vn 0.999989 -0.004752 -0.000000
vn 0.001020 -0.866319 0.499491
vn 0.208271 -0.955639 0.208272
vn 0.001356 -0.999998 0.001356
vn 0.001013 -0.707109 0.707104
vn -0.000000 -0.707109 0.707105
vn 0.000963 -0.258716 0.965953
vn 0.000000 -0.008285 0.999966
vn 0.000000 -0.258813 0.965928
vn -0.008471 -0.004286 0.999955
vn -0.006343 -0.499897 0.866062
vn -0.000000 -0.499999 0.866026
vn -0.000000 -0.004751 0.999989
vn -0.006343 -0.866061 0.499899
vn 0.000000 -0.866026 0.499999
vn -0.008958 -0.999959 0.001089
vn 0.000000 -0.999999 0.001172
vn -0.999990 -0.004273 0.001021
vn -0.966004 -0.003023 0.258510
vn -0.966003 0.003017 0.258512
vn -0.999990 0.004276 0.001020
vn -0.707097 -0.003185 0.707109
vn -0.499946 -0.003213 0.866051
vn -0.499866 0.003212 0.866096
vn -0.707096 0.003185 0.707110
vn -0.008472 0.003937 0.999956
vn 0.006155 -0.005274 0.999967
vn 0.266472 -0.005606 0.963826
vn 0.470137 0.002996 0.882588
vn 0.005209 0.002560 0.999983
vn 0.718508 -0.004628 0.695503
vn 0.867274 -0.004483 0.497811
vn 0.859471 0.003306 0.511173
vn 0.999973 -0.007162 0.001484
vn 0.999991 0.003996 0.001474
vn -0.009374 0.999955 0.001292
vn -0.004522 0.863488 0.504350
vn 0.003788 0.853760 0.520653
vn 0.003313 0.999994 0.001289
vn -0.004747 0.720521 0.693417
vn 0.002621 0.461784 0.886989
vn -0.007246 0.266543 0.963796
vn 0.001385 0.003531 0.999993
vn 0.612992 0.790088 0.001593
vn 0.524851 0.675906 0.517380
vn 0.529060 0.675290 0.513886
vn 0.618047 0.786139 0.001600
vn 0.292143 0.377589 0.878680
vn 0.304608 0.386058 0.870732
vn 0.000000 -1.000000 0.000000
vn 0.616495 0.787359 0.000000
vn 0.609741 0.792601 0.000002
vn 0.007799 -0.999969 0.001248
vn 0.999966 -0.008288 0.000000
vn 0.999990 0.004380 0.000001
vn -0.999994 -0.003593 0.000000
vn -0.999994 0.003602 -0.000000
vn 0.258232 -0.966064 -0.005971
vn 0.707116 -0.707070 -0.006285
vn 0.866074 -0.499876 -0.006345
vn -0.904777 0.425886 -0.000000
vn -0.866116 0.499843 0.000769
vn -0.500451 0.865765 0.000769
vn 0.217783 0.975996 0.001372
vn 0.427906 0.903822 0.001375
vn 0.795947 0.605366 0.000018
vn 0.822810 0.568315 0.001315
vn 0.945818 0.324696 0.000022
vn 0.953809 0.300410 0.001323
vn -0.258718 -0.965953 0.000727
vn -0.965935 -0.258786 0.000000
vn -0.965954 -0.258714 0.000723
vn -0.707101 -0.707113 0.000000
vn -0.707101 -0.707113 0.000000
vn -0.707101 -0.707112 0.000764
vn -0.707101 -0.707112 0.000764
vn 0.965928 -0.258813 0.000000
vn 0.965953 -0.258716 0.000964
vn 0.499506 -0.866310 0.001020
vn 0.707101 -0.707113 0.000000
vn 0.707101 -0.707112 0.001013
vn 0.006338 -0.866093 0.499843
vn 0.005964 -0.258222 0.966067
vn 0.006282 -0.707092 0.707094
vn 0.946042 0.229005 -0.229262
vn 0.708093 0.498986 -0.499617
vn 0.499542 0.499326 -0.707906
vn 0.229142 0.228783 -0.946125
vn 0.499667 0.707831 -0.499308
vn 0.228657 0.946293 -0.228574
vn 0.770733 0.601159 0.211139
vn 0.441763 0.881858 0.164838
vn 0.439698 0.793382 0.420964
vn 0.422438 0.233209 0.875877
vn 0.774649 0.277071 0.568464
vn 0.422327 0.547014 0.722783
vn 0.229000 -0.946106 -0.229004
vn 0.499449 -0.707857 -0.499490
vn 0.499443 -0.499483 -0.707866
vn 0.228841 -0.229021 -0.946140
vn 0.707854 -0.499459 -0.499483
vn 0.946102 -0.229004 -0.229015
vn 0.228872 -0.228839 0.946177
vn 0.499624 -0.499422 0.707781
vn 0.499611 -0.707863 0.499318
vn 0.229115 -0.946109 0.228876
vn 0.707982 -0.499574 0.499187
vn 0.946075 -0.229149 0.228983
vn -0.946103 -0.229009 0.229009
vn -0.707838 -0.499482 0.499483
vn -0.499476 -0.707844 0.499481
vn -0.229006 -0.946104 0.229007
vn -0.499477 -0.499481 0.707843
vn -0.229006 -0.229008 0.946103
vn 0.228831 -0.946114 0.229137
vn 0.499261 -0.707869 0.499660
vn 0.707783 -0.499379 0.499665
vn 0.946175 -0.228799 0.228917
vn 0.499166 -0.499551 0.708012
vn 0.228939 -0.229125 0.946091
vn -0.228506 0.946304 0.228679
vn -0.499230 0.707833 0.499743
vn -0.707891 0.499253 0.499637
vn -0.946137 0.228721 0.229155
vn -0.499560 0.498944 0.708163
vn -0.229219 0.228955 0.946065
vn 0.417124 0.796425 0.437853
vn 0.161074 0.884430 0.437994
vn 0.208019 0.605643 0.768066
vn 0.878041 0.234436 0.417233
vn 0.725078 0.547974 0.417117
vn 0.573502 0.279537 0.770035
s 1
g Outside_Corner_HP
usemtl initialShadingGroup
f 4/1/1 3/58/2 32/84/3 31/35/4
f 3/59/5 2/57/6 33/85/7 32/83/8
f 2/57/6 10/24/9 34/50/10 33/85/7
f 7/3/11 6/61/12 52/102/13 51/22/14
f 6/61/15 5/60/16 53/104/17 52/102/18
f 5/60/19 4/1/1 54/2/20 53/104/21
f 10/24/9 9/63/22 11/66/23 19/25/24
f 9/64/25 8/62/26 12/67/27 11/65/23
f 8/62/26 7/3/11 13/4/28 12/67/27
f 16/6/29 15/69/30 56/106/31 55/23/32
f 15/69/30 14/68/33 57/108/34 56/106/31
f 14/68/33 13/4/28 58/5/35 57/108/34
f 19/25/24 18/71/36 23/77/37 22/26/38
f 18/72/36 17/70/39 24/78/40 23/76/37
f 17/70/39 16/6/29 25/7/41 24/78/40
f 22/26/38 21/75/42 48/98/43 47/10/44
f 21/75/42 20/73/45 49/100/46 48/98/47
f 20/74/45 28/33/48 50/11/49 49/99/46
f 28/33/48 27/80/50 60/110/51 59/34/52
f 27/80/50 26/79/53 61/112/54 60/110/51
f 26/79/53 25/7/41 62/8/55 61/112/54
f 31/35/4 30/82/56 64/114/57 63/36/58
f 30/82/56 29/81/59 65/116/60 64/114/57
f 29/81/59 37/28/61 66/9/62 65/116/60
f 41/29/63 40/90/64 45/96/65 44/31/66
f 40/91/67 39/89/68 46/97/69 45/95/70
f 39/89/68 38/27/71 47/10/44 46/97/69
f 44/31/66 43/94/72 68/118/73 67/32/74
f 43/94/72 42/92/75 69/121/76 68/118/73
f 42/93/77 50/11/49 70/12/78 69/122/79
f 76/15/80 75/127/81 81/131/82 80/37/83
f 75/127/81 74/125/84 82/133/85 81/131/82
f 74/126/84 73/13/86 83/46/87 82/132/85
f 79/48/88 78/129/89 96/146/90 95/14/91
f 78/130/92 77/128/93 97/147/94 96/145/95
f 77/128/93 76/15/80 98/19/96 97/147/94
f 89/38/97 88/139/98 117/164/99 116/21/100
f 88/139/101 87/137/102 118/166/103 117/164/99
f 87/138/102 86/16/104 119/17/105 118/165/103
f 101/40/106 100/149/107 105/154/108 104/18/109
f 100/150/107 99/148/110 106/155/111 105/153/108
f 99/148/112 98/19/96 107/39/113 106/155/111
f 110/42/114 109/157/115 114/162/116 113/20/117
f 109/158/115 108/156/118 115/163/119 114/161/116
f 108/156/118 107/39/113 116/21/100 115/163/119
f 51/22/14 58/5/35 13/4/28 7/3/11
f 55/23/32 62/8/55 25/7/41 16/6/29
f 10/24/9 19/25/24 38/27/71 34/50/10
f 19/25/24 22/26/38 47/10/44 38/27/71
f 37/28/61 41/29/63 1/30/120 66/9/62
f 41/29/63 44/31/66 67/32/74 1/30/120
f 70/12/78 50/11/49 28/33/48 59/34/52
f 31/35/4 63/36/58 54/2/20 4/1/1
f 76/15/80 80/37/83 107/39/113 98/19/96
f 80/37/83 89/38/97 116/21/100 107/39/113
f 101/40/106 104/18/109 58/41/35 51/51/14
f 110/42/114 113/20/117 62/43/121 55/52/122
f 66/44/62 1/45/120 83/46/87 73/13/86
f 1/45/120 67/55/74 92/56/123 83/46/87
f 86/16/104 70/47/124 59/53/125 119/17/105
f 63/54/126 79/48/88 95/14/91 54/49/127
f 37/28/61 36/87/128 40/90/64 41/29/63
f 36/88/129 35/86/130 39/89/68 40/91/67
f 35/86/130 34/50/10 38/27/71 39/89/68
f 53/103/131 54/49/127 95/14/91 94/144/132
f 51/51/14 52/101/13 93/143/133 101/40/106
f 52/101/13 53/103/131 94/144/132 93/143/133
f 57/107/34 58/41/35 104/18/109 103/152/134
f 55/52/122 56/105/31 102/151/135 110/42/114
f 56/105/31 57/107/34 103/152/134 102/151/135
f 61/111/136 62/43/121 113/20/117 112/160/137
f 59/53/125 60/109/138 111/159/139 119/17/105
f 60/109/138 61/111/136 112/160/137 111/159/139
f 65/115/60 66/44/62 73/13/86 72/124/140
f 63/54/126 64/113/141 71/123/142 79/48/88
f 64/113/143 65/115/144 72/124/145 71/123/146
f 69/119/147 70/47/124 86/16/104 85/135/148
f 67/55/74 68/117/73 84/134/149 92/56/123
f 68/117/73 69/120/150 85/136/151 84/134/149
f 82/132/85 83/46/87 92/56/123 91/141/152
f 80/37/83 81/131/82 90/140/153 89/38/97
f 81/131/82 82/133/85 91/142/152 90/140/154
f 9/63/22 10/24/9 2/57/6 120/168/155
f 120/168/156 2/57/6 3/59/5 121/170/157
f 3/58/2 4/1/1 5/60/19 121/169/158
f 121/169/157 5/60/16 6/61/15 122/171/159
f 6/61/12 7/3/11 8/62/26 122/171/160
f 122/171/159 8/62/26 9/64/25 120/167/156
f 120/167/156 121/169/157 122/171/159
f 18/71/36 19/25/24 11/66/23 123/173/161
f 123/172/161 11/65/23 12/67/27 124/174/162
f 12/67/27 13/4/28 14/68/33 124/174/162
f 124/174/162 14/68/33 15/69/30 125/175/163
f 15/69/30 16/6/29 17/70/39 125/175/163
f 125/175/163 17/70/39 18/72/36 123/172/161
f 123/172/161 124/174/162 125/175/163
f 27/80/50 28/33/48 20/74/45 126/176/164
f 126/177/164 20/73/45 21/75/42 127/179/165
f 21/75/42 22/26/38 23/77/37 127/179/165
f 127/178/165 23/76/37 24/78/40 128/180/166
f 24/78/40 25/7/41 26/79/53 128/180/166
f 128/180/166 26/79/53 27/80/50 126/176/164
f 126/176/164 127/178/165 128/180/166
f 36/87/128 37/28/61 29/81/59 129/182/167
f 129/182/168 29/81/59 30/82/56 130/184/169
f 30/82/56 31/35/4 32/84/3 130/184/170
f 130/183/169 32/83/8 33/85/7 131/185/171
f 33/85/7 34/50/10 35/86/130 131/185/172
f 131/185/171 35/86/130 36/88/129 129/181/168
f 129/181/168 130/183/169 131/185/171
f 49/99/46 50/11/49 42/93/77 132/187/173
f 132/188/174 42/92/75 43/94/72 133/190/175
f 43/94/72 44/31/66 45/96/65 133/190/176
f 133/189/175 45/95/70 46/97/69 134/191/177
f 46/97/69 47/10/44 48/98/43 134/191/178
f 134/191/177 48/98/47 49/100/46 132/186/174
f 132/186/174 133/189/175 134/191/177
f 78/129/89 79/48/88 71/123/142 135/193/179
f 135/193/180 71/123/146 72/124/145 136/195/181
f 72/124/140 73/13/86 74/126/84 136/195/182
f 136/194/181 74/125/84 75/127/81 137/196/183
f 75/127/81 76/15/80 77/128/93 137/196/184
f 137/196/183 77/128/93 78/130/92 135/192/180
f 135/192/180 136/194/181 137/196/183
f 91/141/152 92/56/123 84/134/149 138/198/185
f 138/198/186 84/134/149 85/136/151 139/200/187
f 85/135/148 86/16/104 87/138/102 139/201/188
f 139/199/187 87/137/102 88/139/101 140/202/189
f 88/139/98 89/38/97 90/140/153 140/202/190
f 140/202/189 90/140/154 91/142/152 138/197/186
f 138/197/186 139/199/187 140/202/189
f 100/149/107 101/40/106 93/143/133 141/204/191
f 141/204/192 93/143/133 94/144/132 142/206/193
f 94/144/132 95/14/91 96/146/90 142/206/194
f 142/205/193 96/145/95 97/147/94 143/207/195
f 97/147/94 98/19/96 99/148/112 143/207/196
f 143/207/195 99/148/110 100/150/107 141/203/192
f 141/203/192 142/205/193 143/207/195
f 109/157/115 110/42/114 102/151/135 144/209/197
f 144/209/197 102/151/135 103/152/134 145/211/198
f 103/152/134 104/18/109 105/154/108 145/211/198
f 145/210/198 105/153/108 106/155/111 146/212/199
f 106/155/111 107/39/113 108/156/118 146/212/199
f 146/212/199 108/156/118 109/158/115 144/208/197
f 144/208/197 145/210/198 146/212/199
f 118/165/103 119/17/105 111/159/139 147/214/200
f 147/214/200 111/159/139 112/160/137 148/216/201
f 112/160/137 113/20/117 114/162/116 148/216/201
f 148/215/201 114/161/116 115/163/119 149/217/202
f 115/163/119 116/21/100 117/164/99 149/217/202
f 149/217/202 117/164/99 118/166/103 147/213/200
f 147/213/200 148/215/201 149/217/202
