# This file uses centimeters as units for non-parametric coordinates.

mtllib Outside_Bend_LP.mtl
g default
v -1.000000 0.000000 0.000000
v -0.500000 0.000000 0.000000
v 0.000000 0.000000 0.000993
v -1.000000 1.000000 0.000000
v -0.500000 1.000000 0.000000
v 0.000000 0.609761 0.000993
v 0.188605 1.000000 -2.953752
v 0.513316 1.000000 -2.563976
v 0.839634 0.609761 -2.176530
v 0.186280 0.000000 -2.950818
v 0.510489 0.000000 -2.560446
v 0.839634 0.000000 -2.176530
v 3.000000 1.000000 -3.922272
v 3.000000 1.000000 -3.422271
v 3.000000 0.609761 -2.922271
v 3.000000 0.000000 -3.922272
v 3.000000 0.000000 -3.422271
v 3.000000 0.000000 -2.922271
v -0.673353 1.000000 -1.647360
v -0.673681 0.000000 -1.646822
v -0.222356 0.000000 -1.440164
v 0.223574 0.000000 -1.227455
v 0.223574 0.609761 -1.227455
v -0.221541 1.000000 -1.441307
v -0.299936 0.000000 -2.359556
v -0.298682 1.000000 -2.361218
v 0.095293 1.000000 -2.055227
v 0.486488 0.609761 -1.746306
v 0.486488 0.000000 -1.746306
v 0.093523 0.000000 -2.052943
v -0.916998 1.000000 -0.842656
v -0.916998 0.000000 -0.842625
v -0.426605 0.000000 -0.743240
v 0.058639 0.000000 -0.636940
v 0.058639 0.609761 -0.636940
v -0.426605 1.000000 -0.743385
v -0.979199 1.000000 -0.423406
v -0.979199 0.000000 -0.423406
v -0.481607 0.000000 -0.373969
v 0.015404 0.000000 -0.322021
v 0.015404 0.609761 -0.322021
v -0.481607 1.000000 -0.374033
v -0.813994 0.000000 -1.252674
v -0.813994 1.000000 -1.252789
v -0.338750 1.000000 -1.101170
v 0.128355 0.609761 -0.939810
v 0.128355 0.000000 -0.939810
v -0.339152 0.000000 -1.100533
v -0.500932 1.000000 -2.018081
v -0.501699 0.000000 -2.017006
v -0.077676 0.000000 -1.758614
v 0.343542 0.000000 -1.497331
v 0.343542 0.609761 -1.497331
v -0.076401 1.000000 -1.760309
v -0.070101 0.000000 -2.671551
v -0.068322 1.000000 -2.673837
v 0.292254 1.000000 -2.323697
v 0.652235 0.609761 -1.973265
v 0.652235 0.000000 -1.973265
v 0.289962 0.000000 -2.320797
v 1.439897 1.000000 -3.707193
v 1.439897 0.000000 -3.707193
v 1.613387 0.000000 -3.223407
v 1.788574 0.000000 -2.741611
v 1.788575 0.609761 -2.741611
v 1.614667 1.000000 -3.224713
v 0.772986 1.000000 -3.404724
v 0.772986 0.000000 -3.404724
v 1.019734 0.000000 -2.951341
v 1.276017 0.000000 -2.508939
v 1.276017 0.609761 -2.508939
v 1.023605 1.000000 -2.956110
v 2.183447 0.000000 -3.871443
v 2.183447 1.000000 -3.871443
v 2.275408 1.000000 -3.374218
v 2.367998 0.609761 -2.877753
v 2.367998 0.000000 -2.877753
v 2.275408 0.000000 -3.374218
v 0.470746 1.000000 -3.198899
v 0.467868 0.000000 -3.195962
v 0.754067 0.000000 -2.770792
v 1.047841 0.000000 -2.355234
v 1.047841 0.609761 -2.355234
v 0.757425 1.000000 -2.774951
v 1.095726 0.000000 -3.573278
v 1.095726 1.000000 -3.573278
v 1.310874 1.000000 -3.107055
v 1.523271 0.609761 -2.637626
v 1.523271 0.000000 -2.637626
v 1.306531 0.000000 -3.102137
v 1.802698 1.000000 -3.805521
v 1.802698 0.000000 -3.805521
v 1.936105 0.000000 -3.312783
v 2.070674 0.000000 -2.821435
v 2.070674 0.609761 -2.821435
v 1.936105 1.000000 -3.312783
v 2.583295 0.000000 -3.909753
v 2.583295 1.000000 -3.909753
v 2.630850 1.000000 -3.410368
v 2.678580 0.609761 -2.911198
v 2.678580 0.000000 -2.911198
v 2.630850 0.000000 -3.410368
vt 0.476959 0.026691
vt 0.398906 0.027090
vt 0.711117 0.025495
vt 0.633064 0.025894
vt 0.320853 0.027488
vt 0.810128 0.024990
vt 0.812520 0.493306
vt 0.401297 0.495406
vt 0.479350 0.495008
vt 0.907707 0.492820
vt 0.237155 0.049546
vt 0.235725 0.154345
vt 0.065285 0.047200
vt 0.062939 0.219070
vt 0.148874 0.220243
vt 0.151220 0.048373
vt 0.635456 0.494211
vt 0.713508 0.493812
vt 0.323244 0.495805
vt 0.905316 0.024504
vt 0.633064 0.512075
vt 0.711117 0.511677
vt 0.713508 0.979993
vt 0.635456 0.980392
vt 0.810128 0.511171
vt 0.812520 0.979488
vt 0.231165 0.908202
vt 0.146346 0.909404
vt 0.143941 0.739766
vt 0.228760 0.738564
vt 0.060588 0.844407
vt 0.059122 0.740969
vt 0.479350 0.981189
vt 0.401297 0.981588
vt 0.398906 0.513271
vt 0.476959 0.512872
vt 0.323244 0.981986
vt 0.320853 0.513669
vt 0.905316 0.510685
vt 0.907707 0.979002
vt 0.634260 0.260052
vt 0.478154 0.260849
vt 0.400102 0.261248
vt 0.322049 0.261646
vt 0.906511 0.258662
vt 0.811324 0.259148
vt 0.712313 0.259654
vt 0.478752 0.377929
vt 0.634858 0.377131
vt 0.712910 0.376733
vt 0.811922 0.376227
vt 0.322647 0.378726
vt 0.907109 0.375741
vt 0.400699 0.378327
vt 0.633662 0.142973
vt 0.477556 0.143770
vt 0.399504 0.144169
vt 0.321451 0.144567
vt 0.905913 0.141583
vt 0.810726 0.142069
vt 0.711715 0.142575
vt 0.633363 0.084434
vt 0.477258 0.085231
vt 0.399205 0.085629
vt 0.321152 0.086028
vt 0.905614 0.083043
vt 0.810427 0.083529
vt 0.711416 0.084035
vt 0.477855 0.202310
vt 0.633961 0.201513
vt 0.712014 0.201114
vt 0.811025 0.200609
vt 0.321750 0.203107
vt 0.906212 0.200122
vt 0.399803 0.202708
vt 0.634559 0.318592
vt 0.478453 0.319389
vt 0.400400 0.319788
vt 0.322348 0.320186
vt 0.906810 0.317202
vt 0.811623 0.317688
vt 0.712612 0.318193
vt 0.479051 0.436468
vt 0.635157 0.435671
vt 0.713209 0.435273
vt 0.812221 0.434767
vt 0.322945 0.437265
vt 0.907408 0.434281
vt 0.400998 0.436867
vt 0.634260 0.746234
vt 0.478154 0.747031
vt 0.400102 0.747429
vt 0.322049 0.747828
vt 0.906511 0.744843
vt 0.811324 0.745329
vt 0.712313 0.745835
vt 0.633662 0.629154
vt 0.477556 0.629951
vt 0.399504 0.630350
vt 0.321451 0.630749
vt 0.905913 0.627764
vt 0.810726 0.628250
vt 0.711715 0.628756
vt 0.478752 0.864110
vt 0.634858 0.863313
vt 0.712910 0.862914
vt 0.811922 0.862409
vt 0.322647 0.864907
vt 0.907109 0.861923
vt 0.400699 0.864508
vt 0.633363 0.570615
vt 0.477258 0.571412
vt 0.399205 0.571811
vt 0.321152 0.572209
vt 0.905614 0.569225
vt 0.810427 0.569711
vt 0.711416 0.570216
vt 0.477855 0.688491
vt 0.633961 0.687694
vt 0.712014 0.687295
vt 0.811025 0.686790
vt 0.321750 0.689288
vt 0.906212 0.686304
vt 0.399803 0.688890
vt 0.634559 0.804773
vt 0.478453 0.805570
vt 0.400400 0.805969
vt 0.322348 0.806367
vt 0.906810 0.803383
vt 0.811623 0.803869
vt 0.712612 0.804375
vt 0.479051 0.922649
vt 0.635157 0.921852
vt 0.713209 0.921454
vt 0.812221 0.920948
vt 0.322945 0.923447
vt 0.907408 0.920462
vt 0.400998 0.923048
vn 0.000000 0.000000 1.000000
vn -0.000886 0.000000 1.000000
vn -0.000631 0.000000 1.000000
vn 0.000000 0.000000 1.000000
vn -0.001986 0.000000 0.999998
vn -0.001986 0.000000 0.999998
vn 0.000000 1.000000 0.000000
vn 0.333226 0.942709 0.016157
vn 0.331136 0.943051 0.031699
vn 0.000000 1.000000 0.000000
vn 0.615153 0.787843 0.029826
vn 0.613356 0.787641 0.058453
vn 0.000000 -1.000000 0.000000
vn 0.000000 -1.000000 0.000000
vn 0.000000 -1.000000 0.000000
vn 0.000000 -1.000000 0.000000
vn 0.000000 -1.000000 0.000000
vn 0.000000 -1.000000 0.000000
vn 0.998865 0.000000 0.047633
vn 0.995802 0.000000 0.091535
vn 0.995802 0.000000 0.091535
vn 0.998865 0.000000 0.047633
vn -0.995184 -0.000001 -0.098028
vn -0.995184 -0.000001 -0.098028
vn -0.998795 0.000000 -0.049068
vn -0.998795 0.000000 -0.049068
vn 0.000000 1.000000 -0.000001
vn 0.220249 0.941346 0.255651
vn 0.196161 0.946267 0.257099
vn 0.000000 1.000000 -0.000000
vn 0.398097 0.792461 0.462087
vn 0.370028 0.794099 0.482168
vn 1.000000 0.000000 0.000000
vn 1.000000 0.000000 0.000000
vn 1.000000 0.000000 0.000000
vn 1.000000 0.000000 0.000000
vn 1.000000 0.000000 0.000000
vn 1.000000 0.000000 0.000000
vn 0.000000 -1.000000 0.000000
vn 0.000000 -1.000000 0.000000
vn 0.000000 -1.000000 0.000000
vn 0.000000 -1.000000 0.000000
vn 0.000000 -1.000000 0.000000
vn 0.000000 -1.000000 0.000000
vn 0.651298 0.000000 0.758822
vn 0.605958 0.000000 0.795497
vn 0.605958 0.000000 0.795497
vn 0.651298 0.000000 0.758822
vn -0.611305 -0.000455 -0.791395
vn -0.611545 -0.000456 -0.791210
vn -0.656248 -0.000507 -0.754545
vn -0.656248 -0.000507 -0.754545
vn -0.736679 -0.000253 -0.676243
vn -0.772438 -0.000100 -0.635091
vn -0.772312 -0.000100 -0.635244
vn -0.736679 -0.000253 -0.676243
vn 0.000000 -1.000000 0.000000
vn 0.000000 -1.000000 0.000000
vn 0.000000 -1.000000 0.000000
vn 0.000000 -1.000000 0.000000
vn 0.000000 -1.000000 0.000000
vn 0.000000 -1.000000 0.000000
vn 0.772949 0.000000 0.634469
vn 0.772949 0.000000 0.634469
vn 0.735219 0.000000 0.677830
vn 0.735219 0.000000 0.677830
vn 0.252237 0.945005 0.208188
vn 0.475924 0.788764 0.389035
vn 0.451273 0.789713 0.415579
vn 0.230167 0.949787 0.211962
vn -0.000000 1.000000 0.000000
vn -0.000001 1.000000 0.000001
vn -0.885518 0.000166 -0.464604
vn -0.885556 0.000166 -0.464533
vn -0.925638 0.000100 -0.378409
vn -0.925624 0.000100 -0.378444
vn 0.000000 1.000000 -0.000000
vn 0.308769 0.943307 0.121795
vn 0.294429 0.943591 0.151485
vn 0.000000 1.000000 0.000000
vn 0.578308 0.783964 0.225745
vn 0.552544 0.784599 0.281245
vn 0.932921 0.000000 0.360080
vn 0.932921 0.000000 0.360080
vn 0.892016 0.000000 0.452005
vn 0.892016 0.000000 0.452005
vn 0.000000 -1.000000 0.000000
vn 0.000000 -1.000000 0.000000
vn 0.000000 -1.000000 0.000000
vn 0.000000 -1.000000 0.000000
vn 0.000000 -1.000000 0.000000
vn 0.000000 -1.000000 0.000000
vn -0.957122 0.000013 -0.289686
vn -0.957120 0.000013 -0.289692
vn 0.000000 -1.000000 0.000000
vn 0.000000 -1.000000 0.000000
vn 0.000000 -1.000000 0.000000
vn 0.963137 0.000000 0.269011
vn 0.963137 0.000000 0.269011
vn 0.319262 0.943184 0.092059
vn 0.596191 0.784563 0.170342
vn 0.000000 1.000000 -0.000000
vn -0.980730 -0.000010 -0.195367
vn -0.980731 -0.000010 -0.195365
vn 0.000000 -1.000000 0.000000
vn 0.000000 -1.000000 0.000000
vn 0.000000 -1.000000 0.000000
vn 0.983694 0.000000 0.179851
vn 0.983694 0.000000 0.179851
vn 0.607243 0.786147 0.115011
vn 0.326585 0.943113 0.062289
vn 0.000000 1.000000 0.000000
vn -0.834745 0.000114 -0.550637
vn -0.834820 0.000114 -0.550524
vn 0.000000 -1.000000 0.000000
vn 0.000000 -1.000000 0.000000
vn 0.000000 -1.000000 0.000000
vn 0.838978 0.000000 0.544165
vn 0.838978 0.000000 0.544165
vn 0.518436 0.786300 0.336090
vn 0.275489 0.944206 0.180504
vn 0.000000 1.000000 -0.000000
vn -0.030029 0.000000 -0.999549
vn -0.062128 0.000000 -0.998068
vn -0.062128 0.000000 -0.998068
vn -0.030029 0.000000 -0.999549
vn 0.000000 -1.000000 0.000000
vn 0.000000 -1.000000 0.000000
vn 0.000000 -1.000000 0.000000
vn 0.000000 -1.000000 0.000000
vn 0.000000 -1.000000 0.000000
vn 0.000000 -1.000000 0.000000
vn 0.070266 0.000000 0.997528
vn 0.070266 0.000000 0.997528
vn 0.034432 0.000000 0.999407
vn 0.034432 0.000000 0.999407
vn 0.023037 0.941922 0.335041
vn 0.041545 0.789236 0.612683
vn 0.020458 0.788380 0.614848
vn 0.011204 0.941530 0.336744
vn 0.000000 1.000000 0.000000
vn 0.000000 1.000000 0.000000
vn -0.312095 0.000000 -0.950051
vn -0.312095 0.000000 -0.950051
vn -0.413041 0.000000 -0.910712
vn -0.413041 0.000000 -0.910712
vn 0.000000 -1.000000 0.000000
vn 0.000000 -1.000000 0.000000
vn 0.000000 -1.000000 0.000000
vn 0.000000 -1.000000 0.000000
vn 0.000000 -1.000000 0.000000
vn 0.000000 -1.000000 0.000000
vn 0.413348 -0.000000 0.910573
vn 0.413348 -0.000000 0.910573
vn 0.318318 -0.000000 0.947984
vn 0.318318 0.000000 0.947984
vn 0.133952 0.946077 0.294951
vn 0.249898 0.796825 0.550110
vn 0.190586 0.795849 0.574719
vn 0.103149 0.945196 0.309781
vn 0.000000 1.000000 0.000000
vn 0.000000 1.000000 0.000000
vn -0.215700 0.000000 -0.976460
vn -0.215700 0.000000 -0.976460
vn 0.074458 0.943881 0.321782
vn 0.000000 1.000000 0.000000
vn 0.136109 0.793575 0.593054
vn 0.228733 0.000000 0.973489
vn 0.228733 0.000000 0.973489
vn 0.000000 -1.000000 0.000000
vn 0.000000 -1.000000 0.000000
vn 0.000000 -1.000000 0.000000
vn -0.514492 -0.000202 -0.857495
vn -0.514492 -0.000202 -0.857495
vn 0.000000 -1.000000 0.000000
vn 0.000000 -1.000000 0.000000
vn 0.000000 -1.000000 0.000000
vn 0.510679 0.000000 0.859771
vn 0.510679 0.000000 0.859771
vn 0.310667 0.796044 0.519423
vn 0.165681 0.946212 0.277908
vn 0.000000 1.000000 0.000000
vn -0.132354 0.000000 -0.991203
vn -0.132354 0.000000 -0.991203
vn 0.000000 -1.000000 0.000000
vn 0.000000 -1.000000 0.000000
vn 0.000000 -1.000000 0.000000
vn 0.146075 0.000000 0.989274
vn 0.146075 0.000000 0.989274
vn 0.086640 0.791095 0.605526
vn 0.047786 0.942711 0.330172
vn 0.000000 1.000000 0.000000
s 1
g Outside_Bend_LP
usemtl initialShadingGroup
f 1/13/1 2/16/2 5/15/3 4/14/4
f 2/16/2 3/11/5 6/12/6 5/15/3
s 2
f 4/4/7 5/3/8 42/68/9 37/62/10
f 5/3/8 6/6/11 41/67/12 42/68/9
s 3
f 38/63/13 39/64/14 2/2/15 1/1/16
f 39/64/14 40/65/17 3/5/18 2/2/15
s 4
f 3/20/19 40/66/20 41/67/21 6/6/22
s 5
f 37/62/23 38/63/24 1/1/25 4/4/26
s 6
f 7/21/27 8/22/28 84/117/29 79/111/30
f 8/22/28 9/25/31 83/116/32 84/117/29
s 7
f 13/27/33 14/28/34 17/29/35 16/30/36
f 14/28/34 15/31/37 18/32/38 17/29/35
s 8
f 80/112/39 81/113/40 11/35/41 10/36/42
f 81/113/40 82/114/43 12/38/44 11/35/41
s 9
f 12/39/45 82/115/46 83/116/47 9/25/48
s 10
f 79/111/49 80/112/50 10/36/51 7/21/52
s 5
f 10/9/53 55/83/54 56/84/55 7/17/56
s 3
f 10/9/57 11/8/58 60/89/59 55/83/60
f 11/8/58 12/19/61 59/87/62 60/89/59
s 4
f 58/86/63 59/88/64 12/10/65 9/7/66
s 2
f 57/85/67 58/86/68 9/7/69 8/18/70
f 56/84/71 57/85/67 8/18/70 7/17/72
s 5
f 49/76/73 50/77/74 20/42/75 19/41/76
s 2
f 19/41/77 24/47/78 54/82/79 49/76/80
f 24/47/78 23/46/81 53/81/82 54/82/79
s 4
f 23/46/83 22/45/84 52/80/85 53/81/86
s 3
f 51/78/87 52/79/88 22/44/89 21/43/90
f 50/77/91 51/78/87 21/43/90 20/42/92
s 5
f 19/41/76 20/42/75 43/69/93 44/70/94
s 3
f 20/42/92 21/43/90 48/75/95 43/69/96
f 21/43/90 22/44/89 47/73/97 48/75/95
s 4
f 46/72/98 47/74/99 22/45/84 23/46/83
s 2
f 45/71/100 46/72/101 23/46/81 24/47/78
f 44/70/102 45/71/100 24/47/78 19/41/77
s 5
f 31/55/103 32/56/104 38/63/24 37/62/23
s 3
f 32/56/105 33/57/106 39/64/14 38/63/13
f 33/57/106 34/58/107 40/65/17 39/64/14
s 4
f 41/67/21 40/66/20 34/59/108 35/60/109
s 2
f 42/68/9 41/67/12 35/60/110 36/61/111
f 37/62/10 42/68/9 36/61/111 31/55/112
s 5
f 44/70/94 43/69/93 32/56/104 31/55/103
s 2
f 31/55/112 36/61/111 45/71/100 44/70/102
f 36/61/111 35/60/110 46/72/101 45/71/100
s 4
f 35/60/109 34/59/108 47/74/99 46/72/98
s 3
f 48/75/95 47/73/97 34/58/107 33/57/106
f 43/69/96 48/75/95 33/57/106 32/56/105
s 5
f 26/49/113 25/48/114 50/77/74 49/76/73
s 3
f 25/48/115 30/54/116 51/78/87 50/77/91
f 30/54/116 29/52/117 52/79/88 51/78/87
s 4
f 53/81/86 52/80/85 29/53/118 28/51/119
s 2
f 54/82/79 53/81/82 28/51/120 27/50/121
f 49/76/80 54/82/79 27/50/121 26/49/122
s 5
f 56/84/55 55/83/54 25/48/114 26/49/113
s 2
f 26/49/122 27/50/121 57/85/67 56/84/71
f 27/50/121 28/51/120 58/86/68 57/85/67
s 4
f 28/51/119 29/53/118 59/88/64 58/86/63
s 3
f 60/89/59 59/87/62 29/52/117 30/54/116
f 55/83/60 60/89/59 30/54/116 25/48/115
s 10
f 16/33/123 97/132/124 98/133/125 13/24/126
s 8
f 16/33/127 17/34/128 102/138/129 97/132/130
f 17/34/128 18/37/131 101/136/132 102/138/129
s 9
f 100/135/133 101/137/134 18/40/135 15/26/136
s 6
f 99/134/137 100/135/138 15/26/139 14/23/140
f 98/133/141 99/134/137 14/23/140 13/24/142
s 10
f 61/90/143 62/91/144 85/118/145 86/119/146
s 8
f 62/91/147 63/92/148 90/124/149 85/118/150
f 63/92/148 64/93/151 89/122/152 90/124/149
s 9
f 88/121/153 89/123/154 64/94/155 65/95/156
s 6
f 87/120/157 88/121/158 65/95/159 66/96/160
f 86/119/161 87/120/157 66/96/160 61/90/162
s 10
f 91/125/163 92/126/164 62/91/144 61/90/143
s 6
f 61/90/162 66/96/160 96/131/165 91/125/166
f 66/96/160 65/95/159 95/130/167 96/131/165
s 9
f 65/95/156 64/94/155 94/129/168 95/130/169
s 8
f 93/127/170 94/128/171 64/93/151 63/92/148
f 92/126/172 93/127/170 63/92/148 62/91/147
s 10
f 67/97/173 68/98/174 80/112/50 79/111/49
s 8
f 68/98/175 69/99/176 81/113/40 80/112/39
f 69/99/176 70/100/177 82/114/43 81/113/40
s 9
f 83/116/47 82/115/46 70/101/178 71/102/179
s 6
f 84/117/29 83/116/32 71/102/180 72/103/181
f 79/111/30 84/117/29 72/103/181 67/97/182
s 10
f 86/119/146 85/118/145 68/98/174 67/97/173
s 6
f 67/97/182 72/103/181 87/120/157 86/119/161
f 72/103/181 71/102/180 88/121/158 87/120/157
s 9
f 71/102/179 70/101/178 89/123/154 88/121/153
s 8
f 90/124/149 89/122/152 70/100/177 69/99/176
f 85/118/150 90/124/149 69/99/176 68/98/175
s 10
f 74/105/183 73/104/184 92/126/164 91/125/163
s 8
f 73/104/185 78/110/186 93/127/170 92/126/172
f 78/110/186 77/108/187 94/128/171 93/127/170
s 9
f 95/130/169 94/129/168 77/109/188 76/107/189
s 6
f 96/131/165 95/130/167 76/107/190 75/106/191
f 91/125/166 96/131/165 75/106/191 74/105/192
s 10
f 98/133/125 97/132/124 73/104/184 74/105/183
s 6
f 74/105/192 75/106/191 99/134/137 98/133/141
f 75/106/191 76/107/190 100/135/138 99/134/137
s 9
f 76/107/189 77/109/188 101/137/134 100/135/133
s 8
f 102/138/129 101/136/132 77/108/187 78/110/186
f 97/132/130 102/138/129 78/110/186 73/104/185
