# This file uses centimeters as units for non-parametric coordinates.

mtllib Wall_HP.mtl
g default
v -0.996168 0.014302 -0.028605
v -0.985698 0.003832 -0.028605
v -0.971395 0.000000 -0.028605
v -0.971395 0.003832 -0.014302
v -0.971395 0.014302 -0.003832
v -0.971395 0.028605 0.000000
v -0.985698 0.028605 -0.003832
v -0.996168 0.028605 -0.014302
v -1.000000 0.028605 -0.028605
v -0.506742 0.000000 -0.028605
v -0.493258 0.000000 -0.028605
v -0.479773 0.000000 -0.028605
v -0.479774 0.003832 -0.014302
v -0.479774 0.014302 -0.003832
v -0.479773 0.028605 0.000000
v -0.493258 0.028605 0.000000
v -0.506742 0.028605 0.000000
v -0.520227 0.028605 0.000000
v -0.520227 0.014302 -0.003832
v -0.520227 0.003832 -0.014302
v -0.520227 0.000000 -0.028605
v -0.014302 0.003832 -0.028598
v -0.003832 0.014302 -0.028598
v 0.000000 0.028605 -0.028605
v -0.003832 0.028605 -0.014302
v -0.014302 0.028605 -0.003832
v -0.028605 0.028605 0.000000
v -0.028615 0.014302 -0.003832
v -0.028615 0.003832 -0.014302
v -0.028605 0.000000 -0.028605
v -0.985698 0.996168 -0.028606
v -0.996168 0.985698 -0.028606
v -1.000000 0.971395 -0.028605
v -0.996168 0.971395 -0.014302
v -0.985698 0.971395 -0.003832
v -0.971395 0.971395 0.000000
v -0.971395 0.985698 -0.003832
v -0.971395 0.996168 -0.014302
v -0.971395 1.000000 -0.028605
v -0.494853 0.994076 -0.028404
v -0.507735 0.998500 -0.028431
v -0.521286 1.000000 -0.028466
v -0.520948 0.996172 -0.014230
v -0.520558 0.985705 -0.003810
v -0.520220 0.971405 0.000000
v -0.506463 0.968453 0.000000
v -0.494449 0.959910 0.000000
v -0.479593 0.947464 0.000000
v -0.480865 0.967224 -0.003763
v -0.482210 0.981677 -0.014158
v -0.483267 0.986940 -0.028386
v -0.002150 0.600776 -0.029353
v -0.008406 0.613594 -0.029353
v -0.018198 0.623964 -0.029339
v -0.021161 0.620525 -0.014465
v -0.024556 0.610390 -0.003694
v -0.027444 0.596367 0.000000
v -0.014611 0.590017 -0.003695
v -0.004533 0.586458 -0.014466
v 0.000000 0.586676 -0.029339
v -0.985698 0.971396 -2.996168
v -0.996168 0.971396 -2.985698
v -1.000000 0.971395 -2.971395
v -0.996168 0.985698 -2.971395
v -0.985698 0.996168 -2.971395
v -0.971395 1.000000 -2.971395
v -0.971395 0.996168 -2.985698
v -0.971395 0.985698 -2.996168
v -0.971395 0.971395 -3.000000
v -0.494444 0.959860 -3.000000
v -0.506510 0.968359 -3.000000
v -0.520296 0.971297 -3.000000
v -0.520627 0.985651 -2.996180
v -0.521009 0.996158 -2.985735
v -0.521338 1.000000 -2.971465
v -0.507759 0.998500 -2.971519
v -0.494859 0.994076 -2.971570
v -0.483267 0.986940 -2.971614
v -0.482210 0.981677 -2.985842
v -0.480865 0.967224 -2.996237
v -0.479593 0.947464 -3.000000
v -0.004545 0.586671 -2.985731
v -0.014625 0.590125 -2.996369
v -0.027444 0.596367 -3.000000
v -0.024480 0.610313 -2.996370
v -0.021001 0.620384 -2.985732
v -0.017970 0.623786 -2.971028
v -0.008301 0.613546 -2.971020
v -0.002123 0.600888 -2.971020
v 0.000000 0.586965 -2.971028
v -0.985698 0.003832 -2.971395
v -0.996168 0.014302 -2.971395
v -1.000000 0.028605 -2.971395
v -0.996168 0.028605 -2.985698
v -0.985698 0.028605 -2.996168
v -0.971395 0.028605 -3.000000
v -0.971395 0.014302 -2.996168
v -0.971395 0.003832 -2.985698
v -0.971395 0.000000 -2.971395
v -0.493258 0.000000 -2.971395
v -0.506742 0.000000 -2.971395
v -0.520227 0.000000 -2.971395
v -0.520226 0.003832 -2.985698
v -0.520226 0.014302 -2.996168
v -0.520227 0.028605 -3.000000
v -0.506742 0.028605 -3.000000
v -0.493258 0.028605 -3.000000
v -0.479773 0.028605 -3.000000
v -0.479774 0.014302 -2.996168
v -0.479774 0.003832 -2.985698
v -0.479773 0.000000 -2.971395
v -0.003832 0.014302 -2.971399
v -0.014302 0.003832 -2.971399
v -0.028605 0.000000 -2.971395
v -0.028615 0.003832 -2.985698
v -0.028615 0.014302 -2.996168
v -0.028605 0.028605 -3.000000
v -0.014302 0.028605 -2.996168
v -0.003832 0.028605 -2.985698
v 0.000000 0.028605 -2.971395
v -0.994017 0.016245 -0.016245
v -0.983755 0.005983 -0.016245
v -0.983755 0.016245 -0.005983
v -0.506743 0.003832 -0.014302
v -0.493255 0.003832 -0.014302
v -0.493255 0.014302 -0.003832
v -0.506743 0.014302 -0.003832
v -0.016243 0.005984 -0.016243
v -0.005980 0.016246 -0.016242
v -0.016247 0.016245 -0.005984
v -0.983755 0.994017 -0.016246
v -0.994017 0.983755 -0.016246
v -0.983755 0.983755 -0.005984
v -0.494683 0.989536 -0.014191
v -0.507540 0.994500 -0.014208
v -0.506868 0.983492 -0.003803
v -0.494412 0.977022 -0.003794
v -0.005228 0.598925 -0.016464
v -0.011756 0.612302 -0.016464
v -0.014448 0.602709 -0.005807
v -0.983755 0.983755 -2.994016
v -0.994017 0.983756 -2.983754
v -0.983755 0.994017 -2.983755
v -0.494412 0.976997 -2.996202
v -0.506908 0.983444 -2.996189
v -0.507566 0.994486 -2.985767
v -0.494684 0.989529 -2.985796
v -0.005214 0.599017 -2.983760
v -0.014416 0.602725 -2.994291
v -0.011675 0.612256 -2.983760
v -0.983755 0.005983 -2.983755
v -0.994017 0.016245 -2.983755
v -0.983755 0.016245 -2.994017
v -0.493255 0.003832 -2.985698
v -0.506743 0.003832 -2.985698
v -0.506743 0.014302 -2.996168
v -0.493255 0.014302 -2.996168
v -0.005980 0.016246 -2.983756
v -0.016243 0.005984 -2.983755
v -0.016247 0.016245 -2.994015
vt 0.472516 0.031179
vt 0.070134 0.052183
vt 0.402086 0.031539
vt 0.395771 0.031571
vt 0.154629 0.053336
vt 0.325341 0.031931
vt 0.900873 0.028992
vt 0.067923 0.214220
vt 0.145466 0.215281
vt 0.152505 0.211261
vt 0.231039 0.151979
vt 0.813755 0.029551
vt 0.483793 0.490520
vt 0.639898 0.489722
vt 0.710155 0.489375
vt 0.716799 0.489364
vt 0.808938 0.488802
vt 0.816055 0.488766
vt 0.903219 0.488378
vt 0.404432 0.490925
vt 0.223976 0.257304
vt 0.147441 0.258389
vt 0.327687 0.491317
vt 0.140578 0.258486
vt 0.064043 0.259571
vt 0.147677 0.053242
vt 0.232172 0.054395
vt 0.637552 0.030337
vt 0.707817 0.029957
vt 0.714453 0.029909
vt 0.806548 0.029588
vt 0.226243 0.417237
vt 0.149720 0.418305
vt 0.142758 0.414360
vt 0.065212 0.355888
vt 0.474862 0.490565
vt 0.398117 0.490957
vt 0.481447 0.031134
vt 0.628622 0.030382
vt 0.630967 0.489768
vt 0.478480 0.031123
vt 0.475506 0.031138
vt 0.237155 0.049546
vt 0.474849 0.026702
vt 0.158391 0.050528
vt 0.155971 0.050717
vt 0.481183 0.026669
vt 0.237155 0.049546
vt 0.399990 0.031532
vt 0.397885 0.031543
vt 0.237155 0.049546
vt 0.396800 0.027100
vt 0.197754 0.051205
vt 0.154783 0.053140
vt 0.152471 0.053106
vt 0.194278 0.051157
vt 0.403222 0.027068
vt 0.237155 0.049546
vt 0.323100 0.030702
vt 0.905326 0.026506
vt 0.320863 0.029490
vt 0.237155 0.049546
vt 0.903300 0.024514
vt 0.234729 0.051697
vt 0.234660 0.051933
vt 0.325175 0.027466
vt 0.237155 0.049546
vt 0.634589 0.030326
vt 0.631620 0.030341
vt 0.237155 0.049546
vt 0.630859 0.025905
vt 0.155937 0.131020
vt 0.159442 0.130178
vt 0.637194 0.025873
vt 0.237155 0.049546
vt 0.712247 0.029907
vt 0.710044 0.029923
vt 0.237155 0.049546
vt 0.708706 0.025508
vt 0.197769 0.130981
vt 0.153722 0.211124
vt 0.155497 0.209633
vt 0.199319 0.128890
vt 0.715379 0.025474
vt 0.237155 0.049546
vt 0.811368 0.029542
vt 0.808969 0.029554
vt 0.237155 0.049546
vt 0.808357 0.024999
vt 0.238946 0.103212
vt 0.239061 0.102450
vt 0.814737 0.024966
vt 0.237155 0.049546
vt 0.141201 0.334553
vt 0.633549 0.494220
vt 0.059122 0.254788
vt 0.633967 0.489772
vt 0.636933 0.489751
vt 0.639865 0.491972
vt 0.059122 0.254788
vt 0.639890 0.494188
vt 0.142183 0.410465
vt 0.144213 0.411859
vt 0.711522 0.493822
vt 0.059122 0.254788
vt 0.706106 0.491011
vt 0.711040 0.489206
vt 0.713009 0.489173
vt 0.713006 0.491040
vt 0.059122 0.254788
vt 0.718619 0.493786
vt 0.059122 0.254788
vt 0.817007 0.493284
vt 0.062232 0.306079
vt 0.810688 0.493316
vt 0.059122 0.254788
vt 0.801594 0.489710
vt 0.809353 0.488448
vt 0.812714 0.488619
vt 0.477854 0.490576
vt 0.480827 0.490561
vt 0.059122 0.254788
vt 0.483729 0.494985
vt 0.143706 0.257689
vt 0.145918 0.259337
vt 0.477388 0.495018
vt 0.059122 0.254788
vt 0.400232 0.490964
vt 0.402337 0.490953
vt 0.059122 0.254788
vt 0.405693 0.495384
vt 0.106516 0.259011
vt 0.146503 0.260268
vt 0.144247 0.260337
vt 0.103076 0.259057
vt 0.399264 0.495417
vt 0.059122 0.254788
vt 0.323234 0.493802
vt 0.907697 0.490818
vt 0.325458 0.492568
vt 0.059122 0.254788
vt 0.327570 0.495783
vt 0.061592 0.257147
vt 0.061553 0.257039
vt 0.905690 0.492831
vt 0.059122 0.254788
vt 0.237155 0.049546
vt 0.479168 0.026680
vt 0.237155 0.049546
vt 0.476864 0.026691
vt 0.287539 0.041096
vt 0.237155 0.049546
vt 0.401081 0.027078
vt 0.237155 0.049546
vt 0.398940 0.027089
vt 0.249837 0.044441
vt 0.248553 0.044423
vt 0.237155 0.049546
vt 0.323157 0.027476
vt 0.237155 0.049546
vt 0.320853 0.027488
vt 0.905316 0.024504
vt 0.235575 0.051010
vt 0.237155 0.049546
vt 0.635178 0.025883
vt 0.237155 0.049546
vt 0.632874 0.025895
vt 0.349637 0.085352
vt 0.237155 0.049546
vt 0.713039 0.025486
vt 0.237155 0.049546
vt 0.710851 0.025497
vt 0.383538 0.101385
vt 0.286063 0.116865
vt 0.237155 0.049546
vt 0.812729 0.024976
vt 0.237155 0.049546
vt 0.810366 0.024989
vt 0.466782 0.073708
vt 0.637873 0.494198
vt 0.059122 0.254788
vt 0.635567 0.494210
vt 0.059122 0.254788
vt 0.637149 0.492399
vt 0.715965 0.493799
vt 0.059122 0.254788
vt 0.713731 0.493811
vt 0.059122 0.254788
vt 0.569413 0.473952
vt 0.491230 0.464140
vt 0.815017 0.493294
vt 0.059122 0.254788
vt 0.812718 0.493305
vt 0.059122 0.254788
vt 0.508745 0.437195
vt 0.059122 0.254788
vt 0.479406 0.495007
vt 0.059122 0.254788
vt 0.481712 0.494996
vt 0.273284 0.351987
vt 0.059122 0.254788
vt 0.401407 0.495406
vt 0.059122 0.254788
vt 0.403550 0.495395
vt 0.197802 0.328230
vt 0.196536 0.328254
vt 0.059122 0.254788
vt 0.907707 0.492820
vt 0.323244 0.495805
vt 0.059122 0.254788
vt 0.325551 0.495793
vt 0.060694 0.256271
vn -0.008223 -0.999965 0.001286
vn -0.499986 -0.866033 0.000971
vn -0.499986 -0.866033 -0.000971
vn -0.008223 -0.999965 -0.001286
vn -0.707105 -0.707107 0.000963
vn -0.707105 -0.707108 -0.000963
vn -0.965950 -0.258727 0.000913
vn -0.999991 -0.003999 0.001291
vn -0.999991 -0.003999 -0.001291
vn -0.965950 -0.258728 -0.000913
vn -0.008202 -0.003973 0.999958
vn -0.006198 -0.499900 0.866061
vn 0.000000 -0.500000 0.866026
vn 0.000000 -0.004003 0.999992
vn -0.006198 -0.866061 0.499900
vn 0.000000 -0.866026 0.500000
vn 0.000000 -0.999999 0.001296
vn -0.965998 -0.002827 0.258534
vn -0.965998 0.002828 0.258534
vn -0.999991 0.003999 0.001291
vn -0.707103 -0.002979 0.707105
vn -0.499954 -0.003006 0.866047
vn -0.499953 0.003006 0.866047
vn -0.707103 0.002980 0.707104
vn -0.008203 0.003961 0.999959
vn 0.000000 -0.999999 0.001296
vn 0.000000 -0.999999 0.001296
vn 0.000000 -0.999999 -0.001296
vn -0.000000 -0.999999 -0.001296
vn 0.000000 -0.999999 0.001296
vn 0.000000 -0.999999 -0.001296
vn 0.000000 -0.999999 -0.001296
vn -0.000000 -0.005008 0.999988
vn -0.000000 -0.258819 0.965926
vn 0.005827 -0.258235 0.966065
vn 0.006170 -0.005054 0.999968
vn 0.000000 -0.707107 0.707107
vn 0.000000 -0.866023 0.500003
vn 0.006193 -0.866089 0.499851
vn 0.006138 -0.707092 0.707095
vn 0.008225 -0.999965 0.001285
vn -0.000000 -0.004112 0.999992
vn 0.002162 0.004925 0.999986
vn 0.000025 0.003968 0.999992
vn -0.000000 -0.004066 0.999992
vn 0.003168 0.004324 0.999986
vn 0.008594 0.011034 0.999902
vn 0.999977 -0.006689 0.001405
vn 0.866014 -0.500020 0.000971
vn 0.866024 -0.500002 -0.000971
vn 0.999977 -0.006687 -0.001407
vn 0.707108 -0.707105 0.000962
vn 0.707108 -0.707105 -0.000962
vn 0.258727 -0.965950 0.000915
vn 0.008224 -0.999965 -0.001285
vn 0.258728 -0.965950 -0.000914
vn 0.266556 -0.005237 0.963805
vn 0.470047 0.002802 0.882637
vn 0.005207 0.002557 0.999983
vn 0.718529 -0.004332 0.695484
vn 0.867344 -0.004197 0.497692
vn 0.859481 0.003087 0.511158
vn 0.999992 0.003727 0.001395
vn -0.965950 0.258728 0.000913
vn -0.965950 0.258728 -0.000913
vn -0.999991 0.003999 -0.001291
vn -0.707109 0.707104 0.000963
vn -0.707109 0.707104 0.000963
vn -0.707109 0.707104 -0.000963
vn -0.707109 0.707104 -0.000963
vn -0.258725 0.965951 0.000913
vn -0.008240 0.999965 0.001285
vn -0.008241 0.999965 -0.001288
vn -0.258725 0.965950 -0.000913
vn -0.005920 0.965957 0.258635
vn 0.003377 0.965776 0.259356
vn 0.003240 0.999994 0.001313
vn -0.006238 0.706315 0.707870
vn -0.006264 0.498922 0.866624
vn 0.002247 0.495853 0.868404
vn 0.002589 0.706101 0.708106
vn 0.218693 0.975793 0.001301
vn 0.218794 0.975770 -0.001311
vn 0.003243 0.999994 -0.001315
vn 0.427134 0.904187 0.001328
vn 0.427245 0.904135 -0.001333
vn 0.613298 0.789850 0.001133
vn 0.613301 0.789848 -0.001134
vn 0.554891 0.712511 0.429446
vn 0.532593 0.676890 0.508099
vn 0.618046 0.786141 0.001336
vn 0.370440 0.474159 0.798716
vn 0.288671 0.365099 0.885083
vn 0.822246 0.569131 0.001246
vn 0.822262 0.569108 -0.001198
vn 0.618048 0.786139 -0.001334
vn 0.954557 0.298026 0.001246
vn 0.954549 0.298052 -0.001198
vn 0.999992 0.003730 -0.001394
vn -0.965999 0.002828 -0.258532
vn -0.965999 -0.002827 -0.258532
vn -0.707100 0.002979 -0.707107
vn -0.499955 0.003006 -0.866046
vn -0.499949 -0.003006 -0.866049
vn -0.707100 -0.002979 -0.707108
vn -0.008204 0.003966 -0.999959
vn -0.008203 -0.003974 -0.999958
vn -0.006181 0.498693 -0.866757
vn 0.002308 0.495669 -0.868509
vn 0.000026 0.003973 -0.999992
vn -0.006142 0.706081 -0.708105
vn 0.002666 0.705851 -0.708356
vn -0.005869 0.965912 -0.258806
vn 0.003413 0.965727 -0.259538
vn 0.002146 0.004934 -0.999986
vn -0.000000 -0.004107 -0.999992
vn 0.000000 -0.004004 -0.999992
vn 0.003156 0.004332 -0.999986
vn -0.000000 -0.004063 -0.999992
vn 0.008519 0.010942 -0.999904
vn 0.000000 -0.005008 -0.999988
vn 0.368811 0.472302 -0.800568
vn 0.287407 0.363741 -0.886053
vn 0.005184 0.002545 -0.999983
vn 0.554101 0.711764 -0.431698
vn 0.531747 0.676115 -0.510015
vn 0.468225 0.002641 -0.883605
vn 0.264598 -0.005292 -0.964344
vn 0.006119 -0.005055 -0.999969
vn 0.858342 0.002888 -0.513070
vn 0.865998 -0.004358 -0.500028
vn 0.716339 -0.004493 -0.697738
vn -0.005832 -0.966066 -0.258231
vn 0.000000 -0.965926 -0.258817
vn -0.006140 -0.707088 -0.707098
vn -0.006198 -0.499897 -0.866063
vn 0.000000 -0.499998 -0.866026
vn 0.000000 -0.707102 -0.707112
vn -0.000000 -0.965926 -0.258817
vn 0.005826 -0.966065 -0.258234
vn 0.000000 -0.707102 -0.707112
vn 0.000000 -0.500000 -0.866025
vn 0.006196 -0.499847 -0.866091
vn 0.006141 -0.707088 -0.707099
vn -0.946104 -0.229006 0.229006
vn -0.707842 -0.499479 0.499481
vn -0.499481 -0.707839 0.499482
vn -0.229006 -0.946104 0.229006
vn -0.499480 -0.499477 0.707843
vn -0.229007 -0.229008 0.946103
vn 0.000000 -0.866022 0.500006
vn 0.000000 -0.965926 0.258819
vn 0.000000 -0.707107 0.707107
vn 0.000000 -0.707107 0.707107
vn 0.000000 -0.258819 0.965926
vn 0.000000 -0.500007 0.866022
vn 0.228845 -0.946113 0.229127
vn 0.499283 -0.707864 0.499645
vn 0.707788 -0.499384 0.499652
vn 0.946171 -0.228812 0.228922
vn 0.499189 -0.499544 0.708001
vn 0.228947 -0.229118 0.946091
vn -0.229027 0.946101 0.228997
vn -0.499504 0.707841 0.499457
vn -0.707843 0.499501 0.499456
vn -0.946100 0.229024 0.229003
vn -0.499496 0.499496 0.707819
vn -0.229018 0.229017 0.946098
vn 0.431966 0.862079 0.265000
vn 0.228382 0.936393 0.266477
vn 0.181055 0.675118 0.715147
vn 0.156837 0.488173 0.858539
vn 0.264427 0.430979 0.862749
vn 0.330512 0.615678 0.715334
vn 0.878058 0.234760 0.417015
vn 0.725300 0.547735 0.417045
vn 0.573469 0.279933 0.769916
vn -0.229008 0.229019 -0.946100
vn -0.499474 0.499498 -0.707833
vn -0.707838 0.499510 -0.499454
vn -0.946101 0.229028 -0.228997
vn -0.499483 0.707850 -0.499466
vn -0.229009 0.946106 -0.228993
vn 0.262985 0.430867 -0.863245
vn 0.155519 0.487654 -0.859074
vn 0.179753 0.674759 -0.715813
vn 0.227470 0.936505 -0.266863
vn 0.431120 0.862426 -0.265249
vn 0.328835 0.615771 -0.716026
vn 0.875895 0.233546 -0.422214
vn 0.568435 0.277474 -0.774526
vn 0.723017 0.546772 -0.422240
vn -0.229011 -0.946103 -0.229006
vn -0.499481 -0.707842 -0.499479
vn -0.707839 -0.499483 -0.499481
vn -0.946104 -0.229006 -0.229003
vn -0.499483 -0.499480 -0.707839
vn -0.229009 -0.229006 -0.946103
vn -0.000000 -0.965926 -0.258817
vn 0.000001 -0.965926 -0.258817
vn -0.000000 -0.707101 -0.707112
vn -0.000001 -0.500002 -0.866024
vn -0.000007 -0.499996 -0.866028
vn -0.000009 -0.707102 -0.707112
vn 0.946166 -0.228852 -0.228904
vn 0.707787 -0.499434 -0.499603
vn 0.499334 -0.707867 -0.499589
vn 0.228891 -0.946106 -0.229112
vn 0.499215 -0.499573 -0.707963
vn 0.228966 -0.229145 -0.946080
s 1
g Wall_HP
usemtl initialShadingGroup
f 3/1/1 2/42/2 91/120/3 99/36/4
f 2/42/2 1/41/5 92/121/6 91/120/3
s 2
f 1/41/7 9/38/8 93/13/9 92/121/10
s 1
f 6/2/11 5/45/12 19/56/13 18/26/14
f 5/45/12 4/43/15 20/58/16 19/56/13
f 4/44/15 3/1/1 21/3/17 20/57/16
s 2
f 9/38/8 8/47/18 34/71/19 33/39/20
s 1
f 8/48/21 7/46/22 35/72/23 34/70/24
f 7/46/22 6/2/11 36/8/25 35/72/23
f 12/4/26 11/50/27 100/128/28 111/37/29
f 11/50/27 10/49/30 101/129/31 100/128/28
f 10/49/30 21/3/17 102/20/32 101/129/31
f 15/5/33 14/53/34 28/65/35 27/27/36
f 14/53/37 13/51/38 29/67/39 28/65/40
f 13/52/38 12/4/26 30/6/41 29/66/39
f 18/26/14 17/55/42 46/81/43 45/9/44
f 17/55/42 16/54/45 47/82/46 46/81/43
f 16/54/45 15/5/33 48/10/47 47/82/46
f 24/7/48 23/60/49 112/139/50 120/19/51
f 23/61/49 22/59/52 113/140/53 112/138/50
f 22/59/54 30/6/41 114/23/55 113/140/56
f 27/27/36 26/64/57 58/91/58 57/11/59
f 26/64/60 25/62/61 59/93/62 58/91/58
f 25/63/61 24/7/48 60/12/63 59/92/62
s 2
f 33/39/20 32/69/64 64/97/65 63/40/66
s 1
f 32/69/67 31/68/68 65/98/69 64/97/70
f 31/68/71 39/28/72 66/14/73 65/98/74
f 39/28/72 38/74/75 43/79/76 42/29/77
f 38/75/78 37/73/79 44/80/80 43/78/81
f 37/73/79 36/8/25 45/9/44 44/80/80
f 42/29/77 41/77/82 76/107/83 75/15/84
f 41/77/82 40/76/85 77/108/86 76/107/83
f 40/76/85 51/30/87 78/16/88 77/108/86
f 51/30/87 50/84/89 55/89/90 54/31/91
f 50/85/89 49/83/92 56/90/93 55/88/90
f 49/83/92 48/10/47 57/11/59 56/90/93
f 54/31/91 53/87/94 88/118/95 87/17/96
f 53/87/94 52/86/97 89/119/98 88/118/95
f 52/86/97 60/12/63 90/18/99 89/119/98
s 2
f 63/40/66 62/95/100 94/123/101 93/13/9
s 1
f 62/96/102 61/94/103 95/124/104 94/122/105
f 61/94/103 69/32/106 96/21/107 95/124/104
f 69/32/106 68/100/108 73/105/109 72/33/110
f 68/101/108 67/99/111 74/106/112 73/104/109
f 67/99/113 66/14/73 75/15/84 74/106/114
f 72/33/110 71/103/115 106/133/116 105/22/117
f 71/103/115 70/102/118 107/134/119 106/133/116
f 70/102/118 81/34/120 108/24/121 107/134/119
f 81/34/120 80/110/122 85/116/123 84/35/124
f 80/111/122 79/109/125 86/117/126 85/115/123
f 79/109/125 78/16/88 87/17/96 86/117/126
f 84/35/124 83/114/127 118/144/128 117/25/129
f 83/114/127 82/112/130 119/146/131 118/144/132
f 82/113/130 90/18/99 120/19/51 119/145/131
f 99/36/4 98/126/133 103/131/134 102/20/32
f 98/127/135 97/125/136 104/132/137 103/130/138
f 97/125/136 96/21/107 105/22/117 104/132/137
f 111/37/29 110/136/139 115/142/140 114/23/55
f 110/137/141 109/135/142 116/143/143 115/141/144
f 109/135/142 108/24/121 117/25/129 116/143/143
f 6/2/11 18/26/14 45/9/44 36/8/25
f 15/5/33 27/27/36 57/11/59 48/10/47
f 39/28/72 42/29/77 75/15/84 66/14/73
f 51/30/87 54/31/91 87/17/96 78/16/88
f 69/32/106 72/33/110 105/22/117 96/21/107
f 81/34/120 84/35/124 117/25/129 108/24/121
f 99/36/4 102/20/32 21/3/17 3/1/1
f 111/37/29 114/23/55 30/6/41 12/4/26
f 24/7/48 120/19/51 90/18/99 60/12/63
s 2
f 93/13/9 9/38/8 33/39/20 63/40/66
f 8/47/18 9/38/8 1/41/7 121/148/145
s 1
f 121/148/146 1/41/5 2/42/2 122/150/147
f 2/42/2 3/1/1 4/44/15 122/150/148
f 122/149/147 4/43/15 5/45/12 123/151/149
f 5/45/12 6/2/11 7/46/22 123/151/150
f 123/151/149 7/46/22 8/48/21 121/147/146
f 121/147/146 122/149/147 123/151/149
f 20/57/16 21/3/17 10/49/30 124/153/151
f 124/153/151 10/49/30 11/50/27 125/155/152
f 11/50/27 12/4/26 13/52/38 125/155/152
f 125/154/153 13/51/38 14/53/37 126/156/154
f 14/53/34 15/5/33 16/54/45 126/156/155
f 126/156/155 16/54/45 17/55/42 127/157/156
f 17/55/42 18/26/14 19/56/13 127/157/156
f 127/157/156 19/56/13 20/58/16 124/152/151
f 124/152/151 125/154/153 126/156/154 127/157/156
f 29/66/39 30/6/41 22/59/54 128/159/157
f 128/159/158 22/59/52 23/61/49 129/161/159
f 23/60/49 24/7/48 25/63/61 129/162/160
f 129/160/159 25/62/61 26/64/60 130/163/161
f 26/64/57 27/27/36 28/65/35 130/163/162
f 130/163/161 28/65/40 29/67/39 128/158/158
f 128/158/158 129/160/159 130/163/161
f 38/74/75 39/28/72 31/68/71 131/165/163
f 131/165/164 31/68/68 32/69/67 132/167/165
s 2
f 32/69/64 33/39/20 34/71/19 132/167/166
s 1
f 132/166/165 34/70/24 35/72/23 133/168/167
f 35/72/23 36/8/25 37/73/79 133/168/168
f 133/168/167 37/73/79 38/75/78 131/164/164
f 131/164/164 132/166/165 133/168/167
f 50/84/89 51/30/87 40/76/85 134/170/169
f 134/170/169 40/76/85 41/77/82 135/172/170
f 41/77/82 42/29/77 43/79/76 135/172/170
f 135/171/171 43/78/81 44/80/80 136/173/172
f 44/80/80 45/9/44 46/81/43 136/173/172
f 136/173/172 46/81/43 47/82/46 137/174/173
f 47/82/46 48/10/47 49/83/92 137/174/173
f 137/174/173 49/83/92 50/85/89 134/169/174
f 134/169/174 135/171/171 136/173/172 137/174/173
f 59/92/62 60/12/63 52/86/97 138/176/175
f 138/176/175 52/86/97 53/87/94 139/178/176
f 53/87/94 54/31/91 55/89/90 139/178/176
f 139/177/176 55/88/90 56/90/93 140/179/177
f 56/90/93 57/11/59 58/91/58 140/179/177
f 140/179/177 58/91/58 59/93/62 138/175/175
f 138/175/175 139/177/176 140/179/177
f 68/100/108 69/32/106 61/94/103 141/181/178
f 141/181/179 61/94/103 62/96/102 142/183/180
s 2
f 62/95/100 63/40/66 64/97/65 142/182/181
s 1
f 142/182/180 64/97/70 65/98/69 143/184/182
f 65/98/74 66/14/73 67/99/113 143/184/183
f 143/184/182 67/99/111 68/101/108 141/180/179
f 141/180/179 142/182/180 143/184/182
f 80/110/122 81/34/120 70/102/118 144/186/184
f 144/186/184 70/102/118 71/103/115 145/188/185
f 71/103/115 72/33/110 73/105/109 145/188/185
f 145/187/185 73/104/109 74/106/112 146/189/186
f 74/106/114 75/15/84 76/107/83 146/189/187
f 146/189/187 76/107/83 77/108/86 147/190/188
f 77/108/86 78/16/88 79/109/125 147/190/188
f 147/190/189 79/109/125 80/111/122 144/185/184
f 144/185/184 145/187/185 146/189/186 147/190/189
f 89/119/98 90/18/99 82/113/130 148/191/190
f 148/192/190 82/112/130 83/114/127 149/194/191
f 83/114/127 84/35/124 85/116/123 149/194/191
f 149/193/191 85/115/123 86/117/126 150/195/192
f 86/117/126 87/17/96 88/118/95 150/195/192
f 150/195/192 88/118/95 89/119/98 148/191/190
f 148/191/190 149/193/191 150/195/192
f 98/126/133 99/36/4 91/120/3 151/197/193
f 151/197/194 91/120/3 92/121/6 152/199/195
s 2
f 92/121/10 93/13/9 94/123/101 152/199/196
s 1
f 152/198/195 94/122/105 95/124/104 153/200/197
f 95/124/104 96/21/107 97/125/136 153/200/198
f 153/200/197 97/125/136 98/127/135 151/196/194
f 151/196/194 152/198/195 153/200/197
f 110/136/139 111/37/29 100/128/28 154/202/199
f 154/202/199 100/128/28 101/129/31 155/204/200
f 101/129/31 102/20/32 103/131/134 155/204/200
f 155/203/201 103/130/138 104/132/137 156/205/202
f 104/132/137 105/22/117 106/133/116 156/205/202
f 156/205/202 106/133/116 107/134/119 157/206/203
f 107/134/119 108/24/121 109/135/142 157/206/203
f 157/206/203 109/135/142 110/137/141 154/201/204
f 154/201/204 155/203/201 156/205/202 157/206/203
f 119/145/131 120/19/51 112/139/50 158/208/205
f 158/209/206 112/138/50 113/140/53 159/211/207
f 113/140/56 114/23/55 115/142/140 159/211/208
f 159/210/207 115/141/144 116/143/143 160/212/209
f 116/143/143 117/25/129 118/144/128 160/212/210
f 160/212/209 118/144/132 119/146/131 158/207/206
f 158/207/206 159/210/207 160/212/209
