# This file uses centimeters as units for non-parametric coordinates.

mtllib Outside_Corner_LP.mtl
g default
v -1.000000 0.000000 -3.999175
v -0.501239 0.000000 -3.499588
v 0.000000 0.000000 -3.000000
v -1.000000 1.000000 -4.000000
v -0.500000 1.000000 -3.500000
v -0.000000 0.609761 -3.000000
v 3.000000 1.000000 -4.000000
v 3.000000 1.000000 -3.500000
v 3.000000 0.609761 -3.000000
v 3.000000 0.000000 -4.000000
v 3.000000 0.000000 -3.500000
v 3.000000 0.000000 -3.000000
v -1.000000 0.000000 0.000000
v -0.500000 0.000000 0.000000
v 0.000000 0.000000 0.000000
v -1.000000 1.000000 0.000000
v -0.500000 1.000000 0.000000
v 0.000000 0.609761 0.000000
vt 0.495184 0.546082
vt 0.440481 0.546361
vt 0.659293 0.572098
vt 0.604590 0.545523
vt 0.385779 0.546641
vt 0.728685 0.544890
vt 0.146346 0.423223
vt 0.231165 0.422020
vt 0.730361 0.873107
vt 0.442157 0.874579
vt 0.496860 0.874299
vt 0.797072 0.872766
vt 0.060588 0.358226
vt 0.059122 0.254788
vt 0.606266 0.873741
vt 0.228760 0.252383
vt 0.143941 0.253585
vt 0.660969 0.873461
vt 0.387454 0.874858
vt 0.795396 0.544549
vt 0.065285 0.047200
vt 0.151220 0.048373
vt 0.148874 0.220243
vt 0.062939 0.219070
vt 0.237155 0.049546
vt 0.235725 0.154345
vt 0.628152 0.151563
vt 0.685794 0.151269
vt 0.687560 0.465900
vt 0.629918 0.497412
vt 0.758913 0.150895
vt 0.760679 0.496745
vt 0.514635 0.498001
vt 0.456993 0.498295
vt 0.455227 0.152446
vt 0.512869 0.152152
vt 0.399352 0.498590
vt 0.397586 0.152740
vt 0.829208 0.150536
vt 0.830974 0.496386
vn 0.000000 1.000000 0.000000
vn 0.000000 0.981581 0.191048
vn 0.000000 0.940177 0.340687
vn 0.000000 1.000000 0.000000
vn 0.000000 0.788319 0.615266
vn 0.000000 0.788319 0.615266
vn 1.000000 0.000000 0.000000
vn 1.000000 0.000000 0.000000
vn 1.000000 0.000000 0.000000
vn 1.000000 0.000000 0.000000
vn 1.000000 0.000000 0.000000
vn 1.000000 0.000000 0.000000
vn 0.000000 -1.000000 0.000000
vn 0.000000 -1.000000 0.000000
vn 0.000000 -1.000000 0.000000
vn 0.000000 -1.000000 0.000000
vn 0.000000 -1.000000 0.000000
vn 0.000000 -1.000000 0.000000
vn 0.000000 0.000000 1.000000
vn 0.000000 0.000000 1.000000
vn 0.000000 0.000000 1.000000
vn 0.000000 0.000000 1.000000
vn -0.000103 -0.000412 -1.000000
vn -0.000103 -0.000412 -1.000000
vn -0.000103 -0.000412 -1.000000
vn -0.000103 -0.000412 -1.000000
vn 0.000000 0.000000 1.000000
vn 0.000000 0.000000 1.000000
vn 0.000000 0.000000 1.000000
vn 0.000000 0.000000 1.000000
vn 0.000000 0.000000 1.000000
vn 0.000000 0.000000 1.000000
vn 0.000000 1.000000 0.000000
vn 0.340687 0.940177 0.000000
vn 0.191048 0.981581 0.000000
vn 0.000000 1.000000 0.000000
vn 0.615266 0.788319 0.000000
vn 0.615266 0.788319 0.000000
vn 0.000000 -1.000000 0.000000
vn 0.000000 -1.000000 0.000000
vn 0.000000 -1.000000 0.000000
vn 0.000000 -1.000000 0.000000
vn 0.000000 -1.000000 0.000000
vn 0.000000 -1.000000 0.000000
vn 1.000000 0.000000 -0.000000
vn 1.000000 0.000000 -0.000000
vn 1.000000 0.000000 -0.000000
vn 1.000000 0.000000 -0.000000
vn -1.000000 0.000000 0.000000
vn -1.000000 0.000000 0.000000
vn -1.000000 0.000000 0.000000
vn -1.000000 0.000000 0.000000
s 1
g Outside_Corner_LP
usemtl initialShadingGroup
f 4/4/1 5/3/2 8/18/3 7/15/4
f 5/3/2 6/6/5 9/9/6 8/18/3
s 2
f 7/8/7 8/7/8 11/17/9 10/16/10
f 8/7/8 9/13/11 12/14/12 11/17/9
s 3
f 10/11/13 11/10/14 2/2/15 1/1/16
f 11/10/14 12/19/17 3/5/18 2/2/15
s off
f 3/20/19 12/12/20 9/9/21 6/6/22
f 10/11/23 1/1/24 4/4/25 7/15/26
s 4
f 13/21/27 14/22/28 17/23/29 16/24/30
f 14/22/28 15/25/31 18/26/32 17/23/29
s 5
f 16/27/33 17/28/34 5/29/35 4/30/36
f 17/28/34 18/31/37 6/32/38 5/29/35
s 6
f 1/33/39 2/34/40 14/35/41 13/36/42
f 2/34/40 3/37/43 15/38/44 14/35/41
s off
f 15/39/45 3/40/46 6/32/47 18/31/48
f 1/33/49 13/36/50 16/27/51 4/30/52
